<svg xmlns="http://www.w3.org/2000/svg" xmlns:xlink="http://www.w3.org/1999/xlink" width="73" height="73" viewBox="0 0 73 73"><defs><path id="lhjwa" d="M185.5 98c16.292 0 29.5 13.208 29.5 29.5S201.792 157 185.5 157 156 143.792 156 127.5 169.208 98 185.5 98zm-28.25 29.5c0 15.602 12.648 28.25 28.25 28.25s28.25-12.648 28.25-28.25-12.648-28.25-28.25-28.25-28.25 12.648-28.25 28.25zm49.277.157l-32.637 18.987v-37.973z"/><path id="lhjwb" d="M153 160V95h65v65zm3-32.5c0 16.292 13.208 29.5 29.5 29.5s29.5-13.208 29.5-29.5S201.792 98 185.5 98 156 111.208 156 127.5zm29.5-28.25c15.602 0 28.25 12.648 28.25 28.25s-12.648 28.25-28.25 28.25-28.25-12.648-28.25-28.25 12.648-28.25 28.25-28.25zm-11.61 9.42v37.974l32.637-18.987z"/><mask id="lhjwd" width="2" height="2" x="-1" y="-1"><path fill="#fff" d="M156 98h59v59h-59z"/><use xlink:href="#lhjwa"/></mask><filter id="lhjwc" width="98.3" height="97.3" x="138" y="80" filterUnits="userSpaceOnUse"><feOffset dx="3.3" dy="2.3" in="SourceGraphic" result="FeOffset1023Out"/><feGaussianBlur in="FeOffset1023Out" result="FeGaussianBlur1024Out" stdDeviation="3.2 3.2"/></filter><clipPath id="lhjwe"><use fill="#fff" xlink:href="#lhjwb"/></clipPath></defs><g><g transform="translate(-152 -93)"><g filter="url(#lhjwc)"><use fill="none" stroke-opacity=".5" stroke-width="0" mask="url(&quot;#lhjwd&quot;)" xlink:href="#lhjwa"/><use fill-opacity=".5" xlink:href="#lhjwa"/></g><use fill="#fff" xlink:href="#lhjwa"/><use fill="#fff" fill-opacity="0" stroke="#4b4350" stroke-linecap="round" stroke-linejoin="round" stroke-miterlimit="50" stroke-opacity=".19" stroke-width="6" clip-path="url(&quot;#lhjwe&quot;)" xlink:href="#lhjwa"/></g></g></svg>