<svg xmlns="http://www.w3.org/2000/svg" width="30" height="30" viewBox="0 0 30 30"><g><g><path fill="#fff" d="M28.333 0H1.667C.747 0 0 .746 0 1.667v26.666C0 29.253.746 30 1.667 30h14.358V18.4h-3.896v-4.542h3.896v-3.333c0-3.875 2.367-5.988 5.833-5.988a32.273 32.273 0 0 1 3.492.18V8.75h-2.392c-1.879 0-2.246.896-2.246 2.208v2.892h4.496l-.583 4.542h-3.913V30h7.621c.92 0 1.667-.746 1.667-1.667V1.667C30 .747 29.254 0 28.333 0z"/></g><g><path fill="#4267b2" d="M20.445 30V18.16h3.85l.574-4.637h-4.424v-2.952c0-1.34.361-2.254 2.21-2.254H25V4.183A30.619 30.619 0 0 0 21.564 4c-3.402 0-5.739 2.157-5.739 6.112v3.403H12v4.636h3.833V30z"/></g></g></svg>