<svg xmlns="http://www.w3.org/2000/svg" xmlns:xlink="http://www.w3.org/1999/xlink" width="27" height="27" viewBox="0 0 27 27"><defs><path id="hmwza" d="M594 112V85h27v27zm1-13.5c0 6.904 5.596 12.5 12.5 12.5s12.5-5.596 12.5-12.5S614.404 86 607.5 86 595 91.596 595 98.5zm12.5-11.969c6.61 0 11.969 5.359 11.969 11.969 0 6.61-5.359 11.969-11.969 11.969-6.61 0-11.969-5.359-11.969-11.969 0-6.61 5.359-11.969 11.969-11.969zm-4.92 3.99v16.091l13.83-8.045z"/><path id="hmwzb" d="M607.5 86c6.904 0 12.5 5.596 12.5 12.5s-5.596 12.5-12.5 12.5-12.5-5.596-12.5-12.5S600.596 86 607.5 86zm-11.969 12.5c0 6.61 5.359 11.969 11.969 11.969 6.61 0 11.969-5.359 11.969-11.969 0-6.61-5.359-11.969-11.969-11.969-6.61 0-11.969 5.359-11.969 11.969zm20.879.067l-13.83 8.045v-16.09z"/><clipPath id="hmwzc"><use fill="#fff" xlink:href="#hmwza"/></clipPath></defs><g><g transform="translate(-594 -85)"><use fill="#fff" xlink:href="#hmwzb"/><use fill="#fff" fill-opacity="0" stroke="#4b4350" stroke-linecap="round" stroke-linejoin="round" stroke-miterlimit="50" stroke-opacity=".07" stroke-width="2" clip-path="url(&quot;#hmwzc&quot;)" xlink:href="#hmwzb"/></g></g></svg>