<svg xmlns="http://www.w3.org/2000/svg" width="30" height="27" viewBox="0 0 30 27"><g><g><path fill="#fff" d="M9.435 27c11.321 0 17.512-10.387 17.512-19.393 0-.295-.005-.59-.017-.881A13.347 13.347 0 0 0 30 3.196a11.36 11.36 0 0 1-3.535 1.073c1.271-.844 2.247-2.179 2.707-3.77a11.646 11.646 0 0 1-3.908 1.654C24.14.83 22.54 0 20.77 0c-3.4 0-6.156 3.052-6.156 6.815 0 .535.054 1.055.16 1.554-5.116-.285-9.652-2.997-12.687-7.121a7.365 7.365 0 0 0-.834 3.426c0 2.365 1.087 4.452 2.74 5.674a5.666 5.666 0 0 1-2.788-.853l-.001.087c0 3.301 2.121 6.057 4.938 6.682a5.604 5.604 0 0 1-2.78.117c.784 2.708 3.056 4.679 5.75 4.734-2.107 1.829-4.76 2.918-7.645 2.918-.496 0-.986-.032-1.468-.095C2.724 25.872 5.959 27 9.435 27"/></g></g></svg>