<?xml version="1.0" encoding="UTF-8"?>
<svg width="90px" height="32px" viewBox="0 0 90 32" version="1.1" xmlns="http://www.w3.org/2000/svg" xmlns:xlink="http://www.w3.org/1999/xlink">
    <!-- Generator: Sketch 55.2 (78181) - https://sketchapp.com -->
    <title>Artboard</title>
    <desc>Created with Sketch.</desc>
    <g id="Artboard" stroke="none" stroke-width="1" fill="none" fill-rule="evenodd">
        <g id="apple" fill="#FFFFFF">
            <path d="M34.1575126,27.1063717 L32.306448,27.1063717 L31.2924786,23.9635473 L27.7680385,23.9635473 L26.8021594,27.1063717 L25,27.1063717 L28.4918366,16.4067794 L30.6485592,16.4067794 L34.1575126,27.1063717 L34.1575126,27.1063717 Z M30.9868207,22.6449922 L28.0745116,22.6449922 L28.9751837,19.8511026 C29.2115592,18.9626859 29.3835427,18.2905444 29.4903193,17.8354821 L29.5229228,17.8354821 C29.7910867,18.8935422 29.9728513,19.5656837 30.0698468,19.8511026 L30.9868207,22.6449922 Z M43.137336,23.1539224 C43.137336,24.4660455 42.7778823,25.5032016 42.0589747,26.2645868 C41.4150553,26.9423563 40.6154541,27.280839 39.6609861,27.280839 C38.630715,27.280839 37.8906152,26.9158244 37.4398716,26.1857951 L37.4072681,26.1857951 L37.4072681,30.25 L35.6695007,30.25 L35.6695007,21.9310429 C35.6695007,21.106142 35.6474933,20.2595331 35.6051087,19.3912163 L37.1333985,19.3912163 L37.230394,20.6140958 L37.2629975,20.6140958 C37.842525,19.6927152 38.7220049,19.2328289 39.9022522,19.2328289 C40.8249317,19.2328289 41.5951897,19.5922156 42.2113962,20.3117929 C42.8292328,21.0321742 43.137336,21.9792827 43.137336,23.1539224 Z M41.3669651,23.2166341 C41.3669651,22.4657009 41.1957967,21.8466232 40.8518296,21.359401 C40.476074,20.8512749 39.9715346,20.5972119 39.3390264,20.5972119 C38.9102902,20.5972119 38.5206782,20.7387153 38.1726356,21.0177023 C37.823778,21.2991012 37.5955534,21.6665279 37.4887769,22.1215902 C37.4349811,22.3338454 37.4080832,22.5075088 37.4080832,22.6441883 L37.4080832,23.9305835 C37.4080832,24.4917734 37.582512,24.9653276 37.9313696,25.3520502 C38.2802272,25.7387728 38.7334161,25.931732 39.2909362,25.931732 C39.9454518,25.931732 40.4548817,25.682493 40.819226,25.1856228 C41.1843854,24.6879487 41.3669651,24.0318871 41.3669651,23.2166341 Z M52.1334612,23.1539224 C52.1334612,24.4660455 51.7740075,25.5032016 51.0542849,26.2645868 C50.4111805,26.9423563 49.6115793,27.280839 48.6571113,27.280839 C47.6268402,27.280839 46.8867404,26.9158244 46.4368119,26.1857951 L46.4042084,26.1857951 L46.4042084,30.25 L44.666441,30.25 L44.666441,21.9310429 C44.666441,21.106142 44.6444336,20.2595331 44.602049,19.3912163 L46.1303388,19.3912163 L46.2273343,20.6140958 L46.2599378,20.6140958 C46.8386502,19.6927152 47.7181301,19.2328289 48.8991924,19.2328289 C49.8210569,19.2328289 50.5913149,19.5922156 51.2091516,20.3117929 C51.8245429,21.0321742 52.1334612,21.9792827 52.1334612,23.1539224 Z M50.3630903,23.2166341 C50.3630903,22.4657009 50.1911068,21.8466232 49.8471397,21.359401 C49.4713841,20.8512749 48.9684749,20.5972119 48.3351516,20.5972119 C47.9056003,20.5972119 47.5168034,20.7387153 47.1679457,21.0177023 C46.8190881,21.2991012 46.5916786,21.6665279 46.4849021,22.1215902 C46.4319214,22.3338454 46.4042084,22.5075088 46.4042084,22.6441883 L46.4042084,23.9305835 C46.4042084,24.4917734 46.5786372,24.9653276 46.9258646,25.3520502 C47.2747222,25.7379688 47.7279111,25.931732 48.2870614,25.931732 C48.941577,25.931732 49.4510069,25.682493 49.8153512,25.1856228 C50.1805106,24.6879487 50.3630903,24.0318871 50.3630903,23.2166341 Z M62.191646,24.1058548 C62.191646,25.0159794 61.8713164,25.7564607 61.2282121,26.3281026 C60.5215309,26.9528082 59.5377198,27.2647591 58.2735184,27.2647591 C57.1063125,27.2647591 56.1705916,27.0428559 55.4622802,26.5982456 L55.8649337,25.1695429 C56.6278559,25.6246052 57.4649512,25.8529403 58.3770346,25.8529403 C59.0315502,25.8529403 59.5409801,25.7066129 59.9069546,25.415566 C60.2712989,25.124519 60.4530635,24.7337765 60.4530635,24.2465543 C60.4530635,23.8123959 60.3030873,23.4465773 60.0023199,23.1499024 C59.7031826,22.8532275 59.2035337,22.5774565 58.5058185,22.3225894 C56.6066637,21.623916 55.6579013,20.6004278 55.6579013,19.2545368 C55.6579013,18.3749641 55.9904572,17.6537788 56.656384,17.0925889 C57.3198656,16.530595 58.205051,16.25 59.3119404,16.25 C60.2990119,16.25 61.1189903,16.4196434 61.7735059,16.7581261 L61.339064,18.1554729 C60.7277481,17.8274421 60.0365536,17.6634268 59.2630351,17.6634268 C58.6517192,17.6634268 58.1740777,17.8121662 57.8317408,18.1080371 C57.5423846,18.3725521 57.3972989,18.6949549 57.3972989,19.0768535 C57.3972989,19.4997559 57.5627618,19.8494946 57.8953176,20.1244616 C58.1846738,20.3785247 58.7104055,20.6534916 59.4733278,20.9501665 C60.4066035,21.3208092 61.0920924,21.7541636 61.5330549,22.2510337 C61.9723873,22.7462959 62.191646,23.3661776 62.191646,24.1058548 Z M67.9372006,20.6776116 L66.021744,20.6776116 L66.021744,24.4234336 C66.021744,25.3761701 66.3591904,25.8521363 67.0357134,25.8521363 C67.3462619,25.8521363 67.6038297,25.8256044 67.8076016,25.7725406 L67.8556918,27.0742118 C67.5133549,27.2004393 67.0626113,27.2639551 66.5042761,27.2639551 C65.8179721,27.2639551 65.2816442,27.0573279 64.8944775,26.6448774 C64.5089409,26.2316229 64.31495,25.5385775 64.31495,24.5649371 L64.31495,20.6760036 L63.1738269,20.6760036 L63.1738269,19.3896083 L64.31495,19.3896083 L64.31495,17.9769856 L66.021744,17.4688595 L66.021744,19.3896083 L67.9372006,19.3896083 L67.9372006,20.6776116 Z M76.5795777,23.1852782 C76.5795777,24.3711738 76.2356106,25.3448142 75.5493065,26.1061994 C74.8295839,26.8900965 73.8743009,27.280839 72.6834575,27.280839 C71.5358137,27.280839 70.6221002,26.9053724 69.9406867,26.1544392 C69.2592732,25.403506 68.9185664,24.4555935 68.9185664,23.3131138 C68.9185664,22.1175702 69.2690542,21.1383018 69.9724751,20.3769167 C70.6742658,19.6147275 71.6213979,19.2336329 72.8122414,19.2336329 C73.9598851,19.2336329 74.8833797,19.6090995 75.5802799,20.3608367 C76.2470218,21.090062 76.5795777,22.0315425 76.5795777,23.1852782 Z M74.7766032,23.240754 C74.7766032,22.5292167 74.6225516,21.9189829 74.3103729,21.4100528 C73.9460286,20.7941911 73.4251875,20.4870643 72.7502947,20.4870643 C72.0517644,20.4870643 71.5211421,20.7949951 71.1567978,21.4100528 C70.8446192,21.9197869 70.6905676,22.5396686 70.6905676,23.2729139 C70.6905676,23.9844513 70.8446192,24.594685 71.1567978,25.1028111 C71.5325534,25.7186728 72.05747,26.0257997 72.734808,26.0257997 C73.3982896,26.0257997 73.9191307,25.7122409 74.2948863,25.0867312 C74.6152158,24.5681531 74.7766032,23.9514874 74.7766032,23.240754 Z M82.2281368,20.8987107 C82.0561533,20.8673548 81.8727585,20.8512749 81.6803978,20.8512749 C81.0690818,20.8512749 80.5963309,21.0788061 80.263775,21.5346724 C79.9744188,21.9366709 79.8293331,22.444797 79.8293331,23.0582467 L79.8293331,27.1063717 L78.0923808,27.1063717 L78.1086826,21.8208953 C78.1086826,20.9316746 78.0866752,20.1220496 78.0434755,19.3920203 L79.5570938,19.3920203 L79.6206706,20.8681588 L79.6687608,20.8681588 C79.8521556,20.3608367 80.1415118,19.9524062 80.5376445,19.6460834 C80.9248113,19.3703124 81.3429514,19.2328289 81.793695,19.2328289 C81.9542673,19.2328289 82.0993529,19.2440849 82.2281368,19.2641848 L82.2281368,20.8987107 Z M90,22.8837794 C90,23.1909062 89.9796228,23.4497933 89.9364231,23.6612445 L84.7231209,23.6612445 C84.7434981,24.4234336 84.9953603,25.0063315 85.4795225,25.40833 C85.9188549,25.7677166 86.4869711,25.947812 87.1846864,25.947812 C87.9565746,25.947812 88.6608106,25.8264084 89.2941339,25.5827973 L89.5663732,26.7727129 C88.8262734,27.0910957 87.9524992,27.2494831 86.9442354,27.2494831 C85.7313846,27.2494831 84.779362,26.8973325 84.0865373,26.1938351 C83.3953427,25.4903377 83.0489304,24.5456412 83.0489304,23.3605496 C83.0489304,22.1971659 83.3708901,21.2283495 84.0156246,20.4557084 C84.6905174,19.6308074 85.6026008,19.218357 86.7502445,19.218357 C87.8775111,19.218357 88.7309081,19.6308074 89.3104356,20.4557084 C89.7693301,21.1109659 90,21.9213949 90,22.8837794 Z M88.3429263,22.439169 C88.3543375,21.9310429 88.2410403,21.4920605 88.0054799,21.1214179 C87.7047125,20.6446477 87.2425576,20.4066646 86.6206455,20.4066646 C86.0525293,20.4066646 85.5903744,20.6390197 85.2374414,21.105338 C84.9480852,21.4759806 84.7761016,21.9205909 84.7231209,22.438365 L88.3429263,22.438365 L88.3429263,22.439169 Z" id="app-store"></path>
            <path d="M14.1988952,17.4177588 C14.2259234,20.5976108 16.9664195,21.6487812 17,21.6603054 C16.9836193,21.7343894 16.5708249,23.177382 15.5429341,24.6425999 C14.6845838,25.9324855 13.7852817,27.1935607 12.3568821,27.216609 C10.9694342,27.2487121 10.5025834,26.3959224 8.91119549,26.3959224 C7.30506491,26.3959224 6.80790975,27.1935607 5.47697543,27.2487121 C4.1165558,27.2989246 3.07719848,25.871572 2.18772484,24.5932105 C0.409596589,21.9829825 -0.974575102,17.2374876 0.881361615,14.0082462 C1.7806637,12.4244939 3.42037477,11.4046035 5.17311289,11.3774393 C6.5351706,11.349452 7.79894392,12.3018436 8.63599923,12.3018436 C9.4566738,12.3018436 11.0193955,11.1625956 12.6304403,11.3329889 C13.3045073,11.3527447 15.2226908,11.6005147 16.4602549,13.4139275 C16.3603325,13.4740179 14.1751431,14.7647267 14.1988952,17.4177588 Z M11.5779783,9.61588529 C10.8310171,10.5016013 9.6360428,11.1790587 8.47219193,11.0918042 C8.31985114,9.89658152 8.90955742,8.62562851 9.56970084,7.85021546 C10.3158431,6.97026159 11.6115588,6.29609674 12.64764,6.25 C12.7836001,7.49214256 12.2938163,8.71617568 11.5779783,9.61588529 Z"></path>
            <path d="M59,8.57 L59,9.38 L58.208,9.38 C58.1599998,9.38 58.1000004,9.37400006 58.028,9.362 C57.4459971,10.4540055 56.5340062,11 55.292,11 L53.825,11 L53.825,10.19 L55.499,10.19 C55.9670023,10.19 56.3689983,10.0535014 56.705,9.7805 C57.0410017,9.50749863 57.304999,9.17300198 57.497,8.777 C57.3649993,8.44699835 57.2105009,8.18900093 57.0335,8.003 C56.8564991,7.81699907 56.6360013,7.68500039 56.372,7.607 C56.1079987,7.52899961 55.7690021,7.49 55.355,7.49 C55.1029987,7.49 54.8540012,7.50199988 54.608,7.526 L54.491,6.734 C54.8450018,6.69799982 55.1629986,6.68 55.445,6.68 C55.9490025,6.68 56.3719983,6.74299937 56.714,6.869 C57.0560017,6.99500063 57.3424988,7.19599862 57.5735,7.472 C57.8045012,7.74800138 58.0039992,8.11399772 58.172,8.57 L59,8.57 Z M54.185,10.19 L54.185,11 L47.93,11 L47.93,10.19 L49.244,10.19 C49.1479995,9.87199841 49.1,9.45800255 49.1,8.948 C49.1,8.347997 49.2319987,7.71200336 49.496,7.04 C49.7360012,6.92599943 50.0344982,6.83750031 50.3915,6.7745 C50.7485018,6.71149968 51.1009983,6.68 51.449,6.68 C51.8630021,6.68 52.1899988,6.71749962 52.43,6.7925 C52.6700012,6.86750037 52.8424995,6.98899916 52.9475,7.157 C53.0525005,7.32500084 53.105,7.55599853 53.105,7.85 L53.105,10.19 L54.185,10.19 Z M52.385,7.589 C52.1209987,7.52299967 51.788002,7.49 51.386,7.49 C50.9539978,7.49 50.5070023,7.54099949 50.045,7.643 C49.8949992,8.14100249 49.82,8.57599814 49.82,8.948 C49.82,9.45800255 49.8739995,9.87199841 49.982,10.19 L52.385,10.19 L52.385,7.589 Z M48.29,10.19 L48.29,11 L45.05,11 L45.05,10.19 L46.49,10.19 L46.49,5.33 L47.21,5.33 L47.21,10.19 L48.29,10.19 Z M45.41,10.19 L45.41,11 L42.251,11 C41.7109973,11 41.3165012,10.9475005 41.0675,10.8425 C40.8184988,10.7374995 40.6490005,10.5410014 40.559,10.253 C40.4689995,9.96499856 40.424,9.50900312 40.424,8.885 C40.424,8.26099688 40.4689995,7.80500144 40.559,7.517 C40.6490005,7.22899856 40.8184988,7.03250052 41.0675,6.9275 C41.3165012,6.82249947 41.7109973,6.77 42.251,6.77 L44.447,6.77 L44.447,10.19 L45.41,10.19 Z M43.727,7.58 L41.81,7.58 C41.5879989,7.58 41.4290005,7.61899961 41.333,7.697 C41.2369995,7.77500039 41.189,7.9039991 41.189,8.084 L41.189,9.686 C41.189,9.8660009 41.2369995,9.99499961 41.333,10.073 C41.4290005,10.1510004 41.5879989,10.19 41.81,10.19 L43.727,10.19 L43.727,7.58 Z M34.889,6.68 C35.3030021,6.68 35.6299988,6.71749962 35.87,6.7925 C36.1100012,6.86750037 36.2824995,6.98899916 36.3875,7.157 C36.4925005,7.32500084 36.545,7.55599853 36.545,7.85 L36.545,11 L31.37,11 L31.37,10.19 L32.684,10.19 C32.5879995,9.87199841 32.54,9.45800255 32.54,8.948 C32.54,8.347997 32.6719987,7.71200336 32.936,7.04 C33.1760012,6.92599943 33.4744982,6.83750031 33.8315,6.7745 C34.1885018,6.71149968 34.5409983,6.68 34.889,6.68 Z M35.825,7.589 C35.5609987,7.52299967 35.228002,7.49 34.826,7.49 C34.3939978,7.49 33.9470023,7.54099949 33.485,7.643 C33.3349992,8.14100249 33.26,8.57599814 33.26,8.948 C33.26,9.45800255 33.3139995,9.87199841 33.422,10.19 L35.825,10.19 L35.825,7.589 Z M31.73,10.19 L31.73,11 L30.65,11 L30.65,11.324 C30.65,11.8400026 30.5900006,12.2254987 30.47,12.4805 C30.3499994,12.7355013 30.1280016,12.9124995 29.804,13.0115 C29.4799984,13.1105005 28.9790034,13.16 28.301,13.16 C27.700997,13.16 27.2570014,13.1045006 26.969,12.9935 C26.6809986,12.8824994 26.4860005,12.6890014 26.384,12.413 C26.2819995,12.1369986 26.231,11.7140028 26.231,11.144 C26.231,10.7659981 26.2564997,10.3700021 26.3075,9.956 C26.3585003,9.54199793 26.4229996,9.19100144 26.501,8.903 L27.167,9.02 C27.0229993,9.72800354 26.951,10.384997 26.951,10.991 C26.951,11.5430028 26.9869996,11.9959982 27.059,12.35 L28.706,12.35 C29.0240016,12.35 29.2699991,12.3365001 29.444,12.3095 C29.6180009,12.2824999 29.7424996,12.2360003 29.8175,12.17 C29.8925004,12.1039997 29.93,12.0050007 29.93,11.873 L29.93,6.77 L30.65,6.77 L30.65,10.19 L31.73,10.19 Z M28.481,5.69 C28.3909996,5.69600003 28.2860006,5.6390006 28.166,5.519 C28.0459994,5.3989994 27.986,5.29100048 27.986,5.195 C27.986,5.09899952 28.0444994,4.99400057 28.1615,4.88 C28.2785006,4.76599943 28.3849995,4.70600003 28.481,4.7 C28.5770005,4.70600003 28.6834994,4.76599943 28.8005,4.88 C28.9175006,4.99400057 28.976,5.09899952 28.976,5.195 C28.976,5.28500045 28.9160006,5.39149938 28.796,5.5145 C28.6759994,5.63750061 28.5710004,5.69600003 28.481,5.69 Z" id="حملهمن" fill-rule="nonzero"></path>
        </g>
    </g>
</svg>