<?xml version="1.0" encoding="UTF-8"?>
<svg width="32px" height="32px" viewBox="0 0 32 32" version="1.1" xmlns="http://www.w3.org/2000/svg" xmlns:xlink="http://www.w3.org/1999/xlink">
    <!-- Generator: Sketch 55.2 (78181) - https://sketchapp.com -->
    <title>Artboard Copy 3</title>
    <desc>Created with Sketch.</desc>
    <g id="Artboard-Copy-3" stroke="none" stroke-width="1" fill="none" fill-rule="evenodd">
        <g id="instagram" fill="#FFFFFF">
            <path d="M16.0187,19.0878 C17.7177,19.0878 19.0957,17.7138 19.0957,16.0178 C19.0957,14.3228 17.7177,12.9488 16.0187,12.9488 C14.3197,12.9488 12.9417,14.3228 12.9417,16.0178 C12.9417,17.7138 14.3197,19.0878 16.0187,19.0878" id="Fill-202"></path>
            <path d="M19.5618,12.874 L21.7248,12.874 C21.9718,12.874 22.1728,12.674 22.1728,12.428 L22.1728,10.269 C22.1728,10.023 21.9718,9.823 21.7248,9.823 L19.5618,9.823 C19.3148,9.823 19.1138,10.023 19.1138,10.269 L19.1138,12.428 C19.1138,12.674 19.3148,12.874 19.5618,12.874" id="Fill-203"></path>
            <path d="M24,22.102 C24,23.15 23.149,24 22.098,24 L9.902,24 C8.852,24 8,23.15 8,22.102 L8,9.897 C8,8.849 8.852,8 9.902,8 L22.098,8 C23.149,8 24,8.849 24,9.897 L24,22.102 Z M16,0 C7.163,0 0,7.163 0,16 C0,24.836 7.163,32 16,32 C24.837,32 32,24.836 32,16 C32,7.163 24.837,0 16,0 L16,0 Z" id="Fill-204"></path>
            <path d="M20.8858,16.0182 C20.8858,18.6952 18.7028,20.8742 16.0188,20.8742 C13.3348,20.8742 11.1518,18.6952 11.1518,16.0182 C11.1518,15.5742 11.2118,15.1432 11.3248,14.7342 L9.8278,14.7342 L9.8278,21.6922 C9.8278,21.9392 10.0278,22.1392 10.2748,22.1392 L21.7618,22.1392 C22.0098,22.1392 22.2098,21.9392 22.2098,21.6922 L22.2098,14.7342 L20.7128,14.7342 C20.8258,15.1432 20.8858,15.5742 20.8858,16.0182" id="Fill-205"></path>
        </g>
    </g>
</svg>