<?xml version="1.0" encoding="UTF-8"?>
<svg width="94px" height="32px" viewBox="0 0 94 32" version="1.1" xmlns="http://www.w3.org/2000/svg" xmlns:xlink="http://www.w3.org/1999/xlink">
    <!-- Generator: Sketch 55.2 (78181) - https://sketchapp.com -->
    <title>Artboard</title>
    <desc>Created with Sketch.</desc>
    <defs>
        <linearGradient x1="50%" y1="0%" x2="50%" y2="100%" id="linearGradient-1">
            <stop stop-color="#1E79AF" offset="0%"></stop>
            <stop stop-color="#63FFD3" offset="100%"></stop>
        </linearGradient>
        <linearGradient x1="84.7178118%" y1="26.5237906%" x2="5.24419544%" y2="80.7446071%" id="linearGradient-2">
            <stop stop-color="#DC4057" offset="0%"></stop>
            <stop stop-color="#9E36BB" offset="100%"></stop>
        </linearGradient>
        <linearGradient x1="50%" y1="0%" x2="50%" y2="97.8256537%" id="linearGradient-3">
            <stop stop-color="#FF9676" offset="0%"></stop>
            <stop stop-color="#FFD074" offset="100%"></stop>
        </linearGradient>
        <linearGradient x1="17.4435371%" y1="16.9865837%" x2="100%" y2="83.0134163%" id="linearGradient-4">
            <stop stop-color="#51C6AD" offset="0%"></stop>
            <stop stop-color="#D5FFA1" offset="100%"></stop>
        </linearGradient>
    </defs>
    <g id="Artboard" stroke="none" stroke-width="1" fill="none" fill-rule="evenodd">
        <g id="google-play">
            <g transform="translate(0.000000, 15.250000)">
                <path d="M0.656936234,-0.112908101 C0.361122842,-0.0145375238 0.169687365,0.303834247 0.169687365,0.785510869 L0.17151056,15.9452407 C0.17151056,16.4215869 0.357020653,16.7351128 0.644629668,16.839783 L8.62338688,8.35665326 L0.656936234,-0.112908101" id="left" fill="url(#linearGradient-1)"></path>
                <path d="M0.644629668,16.839783 C0.851562303,16.9144089 1.11091179,16.8795189 1.39350702,16.7147603 L11.13028,11.0218659 L8.62338688,8.35665326 L0.644629668,16.839783" id="bottom" fill="url(#linearGradient-2)"></path>
                <path d="M11.1316474,11.0218659 L14.4516856,9.08110652 C15.1249003,8.68617046 15.1249003,8.04361191 14.4516856,7.64964502 L11.1193409,5.70161683 L8.62338688,8.3551995 L11.1316474,11.0218659" id="right" fill="url(#linearGradient-3)"></path>
                <path d="M11.1188851,5.70161683 L1.39350702,0.0164758603 C1.11774878,-0.143921485 0.86341307,-0.181234463 0.657392033,-0.112908101 L8.62338688,8.3551995 L11.1188851,5.70161683" id="top" fill="url(#linearGradient-4)"></path>
            </g>
            <path d="M29.1990937,27.0354828 L27.0822565,27.5194677 C26.2245725,27.654479 25.4543881,27.7731394 24.6388162,27.7731394 C20.5558098,27.7731394 19,24.7725262 19,22.4240781 C19,19.5561403 21.2043368,16.8970262 24.9794567,16.8970262 C25.7781837,16.8970262 26.5464964,17.0142851 27.2464939,17.2048892 C28.3559149,17.5160224 28.8748301,17.8995664 29.1990937,18.1242737 L27.969419,19.2903223 L27.4509717,19.4061797 L27.8206228,18.8180166 C27.3199562,18.3298271 26.3995718,17.4286622 24.6528536,17.4286622 C22.3175012,17.4286622 20.5558098,19.2010935 20.5558098,21.7887311 C20.5558098,24.5679071 22.5673666,27.1821732 25.7936248,27.1821732 C26.741616,27.1821732 27.229649,26.9920363 27.6727624,26.8145128 L27.6727624,24.4319615 L25.4375433,24.5520234 L26.6222983,23.9166764 L29.7591852,23.9166764 L29.3754968,24.2852711 C29.272088,24.3730985 29.2580507,24.4029972 29.2290401,24.5207232 C29.213599,24.6552673 29.1990937,25.0831922 29.1990937,25.23362 L29.1990937,27.0354828 Z M34.0536882,27.5825353 C31.5433364,27.5825353 30.2027665,25.631179 30.2027665,23.8643537 C30.2027665,21.7999431 31.8914635,20.0335849 34.2918558,20.0335849 C36.611767,20.0335849 38.0641681,21.8480613 38.0641681,23.753168 C38.0641681,25.6138938 36.6290798,27.5825353 34.0536882,27.5825353 Z M36.0287478,26.3071696 C36.4077571,25.8026293 36.5022755,25.1728883 36.5022755,24.5590309 C36.5022755,23.1706108 35.8378394,20.5227087 33.8814963,20.5227087 C33.3588378,20.5227087 32.8399226,20.7259263 32.4609133,21.0576148 C31.8432685,21.609339 31.7337769,22.3026147 31.7337769,22.9828097 C31.7337769,24.5403442 32.5081724,27.1092952 34.4186601,27.1092952 C35.0349012,27.1092952 35.6642438,26.8107755 36.0287478,26.3071696 Z M42.4569328,27.5825353 C39.9470489,27.5825353 38.6041394,25.631179 38.6041394,23.8643537 C38.6041394,21.7999431 40.2923685,20.0335849 42.6936966,20.0335849 C45.0150117,20.0335849 46.4688165,21.8480613 46.4688165,23.753168 C46.4688165,25.6138938 45.0318565,27.5825353 42.4569328,27.5825353 Z M44.4315245,26.3071696 C44.8133413,25.8026293 44.905988,25.1728883 44.905988,24.5590309 C44.905988,23.1706108 44.2434236,20.5227087 42.2852088,20.5227087 C41.764422,20.5227087 41.2398918,20.7259263 40.8618183,21.0576148 C40.2451094,21.609339 40.1351499,22.3026147 40.1351499,22.9828097 C40.1351499,24.5403442 40.90627,27.1092952 42.8200331,27.1092952 C43.4376779,27.1092952 44.0679563,26.8107755 44.4315245,26.3071696 Z M52.2466028,20.8072133 C52.6092352,21.1047987 53.3658501,21.7364084 53.3658501,22.9342244 C53.3658501,24.1016745 52.706561,24.6519971 52.0416571,25.1728883 C51.8376471,25.3779745 51.5990116,25.600346 51.5990116,25.9441809 C51.5990116,26.2931545 51.8376471,26.4823571 52.0093711,26.6234416 L52.5797567,27.0630456 C53.2732033,27.6474715 53.9053534,28.1833119 53.9053534,29.2718109 C53.9053534,30.7545987 52.4679255,32.25 49.7516922,32.25 C47.463599,32.25 46.3574533,31.1619682 46.3574533,29.9954524 C46.3574533,29.4278446 46.6405405,28.6238503 47.5744943,28.0730605 C48.5533677,27.475554 49.8794324,27.3956685 50.5897239,27.3489518 C50.3679332,27.0630456 50.1147925,26.7635916 50.1147925,26.274935 C50.1147925,26.0077156 50.1952734,25.8484116 50.272947,25.6606105 C50.1002872,25.6769614 49.9262236,25.6937794 49.7680691,25.6937794 C48.0934095,25.6937794 47.146822,24.4464437 47.146822,23.2173275 C47.146822,22.4922844 47.4781042,21.687823 48.1584494,21.1047987 C49.0587134,20.3648063 50.1321052,20.2372697 50.9851101,20.2372697 L54.2389752,20.2372697 L53.2273479,20.8072133 L52.2466028,20.8072133 Z M51.1278235,27.805841 C50.9982117,27.789023 50.9205382,27.789023 50.7642553,27.789023 C50.621074,27.789023 49.7680691,27.8198561 49.1073764,28.0412932 C48.7578456,28.1688297 47.747622,28.5458335 47.747622,29.6656326 C47.747622,30.7830959 48.8383265,31.5889588 50.5256198,31.5889588 C52.0416571,31.5889588 52.8464669,30.8634486 52.8464669,29.8866025 C52.8464669,29.0826083 52.3256801,28.6584207 51.1278235,27.805841 Z M51.5816988,24.8103667 C51.9466708,24.4464437 51.9784888,23.9437721 51.9784888,23.6583331 C51.9784888,22.524519 51.3014191,20.758628 49.9889239,20.758628 C49.5795003,20.758628 49.135919,20.9637143 48.884182,21.2809206 C48.6170038,21.609339 48.5369907,22.0353952 48.5369907,22.4451006 C48.5369907,23.5008978 49.1536997,25.2518395 50.5101787,25.2518395 C50.9060329,25.2518395 51.3318334,25.0598339 51.5816988,24.8103667 Z M56.5621619,26.1983197 C56.5621619,26.8107755 56.6716535,26.9060775 57.1905687,26.9541957 C57.4610222,26.9859631 57.73054,26.9999781 57.9972502,27.0317455 L57.4132951,27.3788505 L54.6306182,27.3788505 C54.9955901,26.9060775 55.0582904,26.8588937 55.0582904,26.5440232 L55.0582904,26.1922465 L55.0522075,16.8190093 L53.8234687,16.8190093 L55.0063521,16.25 L57.2644989,16.25 C56.7750622,16.5331032 56.6286055,16.7054878 56.5659052,17.2572119 L56.5621619,26.1983197 Z M64.3234302,26.3202502 L63.5682191,27.0317455 C63.3936877,27.1275147 63.220092,27.2387004 63.0469643,27.3176516 C62.5224342,27.5554396 61.9890137,27.6152369 61.5150181,27.6152369 C61.0106082,27.6152369 60.2198357,27.5825353 59.4131541,26.9999781 C58.2925031,26.2118675 57.8025985,24.8570834 57.8025985,23.6765526 C57.8025985,21.2323353 59.7954388,20.0335849 61.4209676,20.0335849 C61.9890137,20.0335849 62.5725008,20.1756037 63.0469643,20.4750577 C63.8358652,20.9959488 64.0398751,21.6728737 64.15311,22.0353952 L60.4411584,23.5326652 L59.2255211,23.6270329 C59.6190357,25.631179 60.9769184,26.7967605 62.4775146,26.7967605 C63.2271107,26.7967605 63.783459,26.5524322 64.2939517,26.3006292 C64.2939517,26.3006292 64.3964246,26.2473722 64.3234302,26.3202502 Z M62.0839999,22.3339149 C62.3853357,22.2245978 62.5420865,22.1302301 62.5420865,21.9106616 C62.5420865,21.2809206 61.8285196,20.5535417 60.9769184,20.5535417 C60.3461721,20.5535417 59.161885,21.044067 59.161885,22.7473576 C59.161885,23.0131756 59.193703,23.2962787 59.2096121,23.5793819 L62.0839999,22.3339149 Z M68.8748173,26.3875223 L68.8748173,30.402822 L68.0760903,30.402822 L68.0760903,20.1854142 L68.8748173,20.1854142 L68.8748173,21.349127 C69.3951363,20.5969882 70.3459349,20.0008832 71.450209,20.0008832 C73.4308835,20.0008832 74.7649027,21.5009562 74.7649027,23.8755657 C74.7649027,26.2342915 73.4308835,27.7656647 71.450209,27.7656647 C70.4076994,27.7656647 69.4737456,27.2288899 68.8748173,26.3875223 Z M73.9067508,23.8755657 C73.9067508,22.0858492 72.9723291,20.7207875 71.3154501,20.7207875 C70.28651,20.7207875 69.3024896,21.5280519 68.8748173,22.2320725 L68.8748173,25.5027081 C69.3024896,26.2081302 70.28651,27.0448261 71.3154501,27.0448261 C72.9723291,27.0448261 73.9067508,25.6680852 73.9067508,23.8755657 Z M75.8556073,17.3641931 L76.6538664,17.3641931 L76.6538664,27.5816009 L75.8556073,27.5816009 L75.8556073,17.3641931 Z M83.2832539,27.5596441 C83.2299118,27.3031694 83.1896713,27.0770606 83.1601928,26.8883252 C83.1358613,26.7000569 83.121824,26.5075842 83.121824,26.3118412 C82.848095,26.7131376 82.4601954,27.047162 81.9646758,27.3101769 C81.4686883,27.5750606 80.9975002,27.704933 80.3513127,27.704933 C79.5731739,27.704933 78.9690985,27.5138617 78.5381509,27.1261132 C78.108607,26.7388318 77.8924314,26.2142033 77.8924314,25.5503591 C77.8924314,24.8874493 78.205465,24.349273 78.8296605,23.9376989 C79.4538561,23.5242562 80.2605377,23.3187027 81.2590634,23.3187027 L83.121824,23.3187027 L83.121824,22.3997854 C83.121824,21.8704853 82.9412097,21.4542395 82.5804489,21.1524497 C82.2182845,20.8501927 81.7101313,20.6974291 81.0513102,20.6974291 C80.4491065,20.6974291 79.9606056,20.837112 79.588615,21.1090032 C79.2198998,21.3865003 79.0341384,21.7303352 79.0341384,22.1447123 L78.2166949,22.1447123 L78.19985,22.1050031 C78.1703715,21.5462714 78.4263198,21.0562133 78.9705023,20.6329601 C79.5123452,20.210174 80.2221688,19.9976131 81.0957619,19.9976131 C81.9665474,19.9976131 82.671224,20.2069039 83.202305,20.6245511 C83.732918,21.0379938 83.9991603,21.6355003 83.9991603,22.4166034 L83.9991603,26.0651771 C83.9991603,26.3272577 84.011794,26.5804622 84.0445479,26.8271263 C84.0782376,27.0742576 84.1320475,27.3209218 84.2036382,27.5596441 L83.2832539,27.5596441 Z M80.4491065,26.9784884 C81.1275799,26.9784884 81.615145,26.8271263 82.113472,26.5276723 C82.6085237,26.230087 82.9454209,25.8418713 83.121824,25.3719014 L83.121824,23.9517139 L81.2501731,23.9517139 C80.5352024,23.9517139 79.9432928,24.1096163 79.4777197,24.4282242 C79.0112107,24.7458977 78.7749148,25.1303761 78.7749148,25.5774548 C78.7749148,25.9993065 78.9246468,26.3366011 79.2222393,26.5921414 C79.5207676,26.8504847 79.9287875,26.9784884 80.4491065,26.9784884 Z M85.6162667,29.7422479 C85.7870548,29.8183962 86.0785645,29.8651129 86.26339,29.8651129 C86.7518909,29.8651129 87.0920634,29.6656326 87.3976104,28.9611449 L87.9801618,27.643267 L84.8339166,20.1854142 L85.7248224,20.1854142 L88.423743,26.6482014 L91.0964605,20.1854142 L92,20.1854142 L88.1626477,29.2082762 C87.764454,30.1379383 87.1379189,30.5850171 86.2774274,30.5850171 C86.0191396,30.5850171 85.6784991,30.5392347 85.4791683,30.4780359 L85.6162667,29.7422479 Z" id="logotype" fill="#FFFFFF"></path>
            <path d="M71.38,5.33 L72.1,5.33 L72.1,11 L71.38,11 L71.38,5.33 Z M70.48,8.57 L70.48,9.38 L69.688,9.38 C69.6399998,9.38 69.5800004,9.37400006 69.508,9.362 C68.9259971,10.4540055 68.0140062,11 66.772,11 L65.305,11 L65.305,10.19 L66.979,10.19 C67.4470023,10.19 67.8489983,10.0535014 68.185,9.7805 C68.5210017,9.50749863 68.784999,9.17300198 68.977,8.777 C68.8449993,8.44699835 68.6905009,8.18900093 68.5135,8.003 C68.3364991,7.81699907 68.1160013,7.68500039 67.852,7.607 C67.5879987,7.52899961 67.2490021,7.49 66.835,7.49 C66.5829987,7.49 66.3340012,7.50199988 66.088,7.526 L65.971,6.734 C66.3250018,6.69799982 66.6429986,6.68 66.925,6.68 C67.4290025,6.68 67.8519983,6.74299937 68.194,6.869 C68.5360017,6.99500063 68.8224988,7.19599862 69.0535,7.472 C69.2845012,7.74800138 69.4839992,8.11399772 69.652,8.57 L70.48,8.57 Z M65.665,10.19 L65.665,11 L57.997,11 L57.997,10.19 L59.437,10.19 L59.437,6.77 L60.157,6.77 L60.157,8.426 C60.361001,7.86799721 60.7269974,7.43750151 61.255,7.1345 C61.7830026,6.83149848 62.4309962,6.68 63.199,6.68 C63.5530018,6.68 63.828999,6.71299967 64.027,6.779 C64.225001,6.84500033 64.3674996,6.95599922 64.4545,7.112 C64.5415004,7.26800078 64.585,7.48399862 64.585,7.76 L64.585,10.19 L65.665,10.19 Z M62.866,7.49 C61.9959956,7.49 61.3405022,7.71199778 60.8995,8.156 C60.4584978,8.60000222 60.2140002,9.27799544 60.166,10.19 L63.865,10.19 L63.865,7.589 C63.6549989,7.52299967 63.3220023,7.49 62.866,7.49 Z M58.357,10.19 L58.357,11 L57.277,11 L57.277,11.324 C57.277,11.8400026 57.2170006,12.2254987 57.097,12.4805 C56.9769994,12.7355013 56.7550016,12.9124995 56.431,13.0115 C56.1069984,13.1105005 55.6060034,13.16 54.928,13.16 C54.327997,13.16 53.8840014,13.1045006 53.596,12.9935 C53.3079986,12.8824994 53.1130005,12.6890014 53.011,12.413 C52.9089995,12.1369986 52.858,11.7140028 52.858,11.144 C52.858,10.7659981 52.8834997,10.3700021 52.9345,9.956 C52.9855003,9.54199793 53.0499996,9.19100144 53.128,8.903 L53.794,9.02 C53.6499993,9.72800354 53.578,10.384997 53.578,10.991 C53.578,11.5430028 53.6139996,11.9959982 53.686,12.35 L55.333,12.35 C55.6510016,12.35 55.8969991,12.3365001 56.071,12.3095 C56.2450009,12.2824999 56.3694996,12.2360003 56.4445,12.17 C56.5195004,12.1039997 56.557,12.0050007 56.557,11.873 L56.557,5.33 L57.277,5.33 L57.277,10.19 L58.357,10.19 Z M49.528,10.19 L49.528,11 L44.56,11 L44.56,10.19 L45.964,10.19 C45.8559995,9.88399847 45.802,9.41900312 45.802,8.795 C45.802,8.21299709 45.8499995,7.77350149 45.946,7.4765 C46.0420005,7.17949851 46.2129988,6.9710006 46.459,6.851 C46.7050012,6.7309994 47.0769975,6.671 47.575,6.671 C47.8570014,6.671 48.1464985,6.69649974 48.4435,6.7475 C48.7405015,6.79850026 48.987999,6.86299961 49.186,6.941 L49.069,7.697 C48.5409974,7.55299928 48.0340024,7.481 47.548,7.481 C47.1159978,7.481 46.7890011,7.51399967 46.567,7.58 L46.567,9.524 C46.561,9.7640012 46.6269993,9.93499949 46.765,10.037 C46.9030007,10.1390005 47.1159986,10.19 47.404,10.19 L49.528,10.19 Z M44.92,10.19 L44.92,11 L41.68,11 L41.68,10.19 L43.12,10.19 L43.12,5.33 L43.84,5.33 L43.84,10.19 L44.92,10.19 Z M42.04,10.19 L42.04,11 L38.8,11 L38.8,10.19 L40.24,10.19 L40.24,6.77 L40.96,6.77 L40.96,10.19 L42.04,10.19 Z M39.907,12.71 C39.8169996,12.716 39.7120006,12.6590006 39.592,12.539 C39.4719994,12.4189994 39.412,12.3110005 39.412,12.215 C39.412,12.1189995 39.4704994,12.0140006 39.5875,11.9 C39.7045006,11.7859994 39.8109995,11.726 39.907,11.72 C40.0030005,11.726 40.1094994,11.7859994 40.2265,11.9 C40.3435006,12.0140006 40.402,12.1189995 40.402,12.215 C40.402,12.3050004 40.3420006,12.4114994 40.222,12.5345 C40.1019994,12.6575006 39.9970005,12.716 39.907,12.71 Z M41.203,12.71 C41.1129995,12.716 41.0080006,12.6590006 40.888,12.539 C40.7679994,12.4189994 40.708,12.3110005 40.708,12.215 C40.708,12.1189995 40.7664994,12.0140006 40.8835,11.9 C41.0005006,11.7859994 41.1069995,11.726 41.203,11.72 C41.2990005,11.726 41.4054994,11.7859994 41.5225,11.9 C41.6395006,12.0140006 41.698,12.1189995 41.698,12.215 C41.698,12.3050004 41.6380006,12.4114994 41.518,12.5345 C41.3979994,12.6575006 41.2930005,12.716 41.203,12.71 Z M39.16,10.19 L39.16,11 L36.001,11 C35.4609973,11 35.0665012,10.9475005 34.8175,10.8425 C34.5684988,10.7374995 34.3990005,10.5410014 34.309,10.253 C34.2189996,9.96499856 34.174,9.50900312 34.174,8.885 C34.174,8.26099688 34.2189996,7.80500144 34.309,7.517 C34.3990005,7.22899856 34.5684988,7.03250052 34.8175,6.9275 C35.0665012,6.82249947 35.4609973,6.77 36.001,6.77 L38.197,6.77 L38.197,10.19 L39.16,10.19 Z M37.477,7.58 L35.56,7.58 C35.3379989,7.58 35.1790005,7.61899961 35.083,7.697 C34.9869995,7.77500039 34.939,7.9039991 34.939,8.084 L34.939,9.686 C34.939,9.8660009 34.9869995,9.99499961 35.083,10.073 C35.1790005,10.1510004 35.3379989,10.19 35.56,10.19 L37.477,10.19 L37.477,7.58 Z M35.551,5.69 C35.4609995,5.69600003 35.3560006,5.6390006 35.236,5.519 C35.1159994,5.3989994 35.056,5.29100048 35.056,5.195 C35.056,5.09899952 35.1144994,4.99400057 35.2315,4.88 C35.3485006,4.76599943 35.4549995,4.70600003 35.551,4.7 C35.6470005,4.70600003 35.7534994,4.76599943 35.8705,4.88 C35.9875006,4.99400057 36.046,5.09899952 36.046,5.195 C36.046,5.28500045 35.9860006,5.39149938 35.866,5.5145 C35.7459994,5.63750061 35.6410004,5.69600003 35.551,5.69 Z M36.847,5.69 C36.7569996,5.69600003 36.6520006,5.6390006 36.532,5.519 C36.4119994,5.3989994 36.352,5.29100048 36.352,5.195 C36.352,5.09899952 36.4104994,4.99400057 36.5275,4.88 C36.6445006,4.76599943 36.7509995,4.70600003 36.847,4.7 C36.9430005,4.70600003 37.0494994,4.76599943 37.1665,4.88 C37.2835006,4.99400057 37.342,5.09899952 37.342,5.195 C37.342,5.28500045 37.2820006,5.39149938 37.162,5.5145 C37.0419994,5.63750061 36.9370004,5.69600003 36.847,5.69 Z M28.639,6.68 C29.0530021,6.68 29.3799988,6.71749962 29.62,6.7925 C29.8600012,6.86750037 30.0324995,6.98899916 30.1375,7.157 C30.2425005,7.32500084 30.295,7.55599853 30.295,7.85 L30.295,11 L25.12,11 L25.12,10.19 L26.434,10.19 C26.3379995,9.87199841 26.29,9.45800255 26.29,8.948 C26.29,8.347997 26.4219987,7.71200336 26.686,7.04 C26.9260012,6.92599943 27.2244982,6.83750031 27.5815,6.7745 C27.9385018,6.71149968 28.2909983,6.68 28.639,6.68 Z M29.575,7.589 C29.3109987,7.52299967 28.978002,7.49 28.576,7.49 C28.1439978,7.49 27.6970023,7.54099949 27.235,7.643 C27.0849992,8.14100249 27.01,8.57599814 27.01,8.948 C27.01,9.45800255 27.0639995,9.87199841 27.172,10.19 L29.575,10.19 L29.575,7.589 Z M25.48,10.19 L25.48,11 L24.4,11 L24.4,11.324 C24.4,11.8400026 24.3400006,12.2254987 24.22,12.4805 C24.0999994,12.7355013 23.8780016,12.9124995 23.554,13.0115 C23.2299984,13.1105005 22.7290034,13.16 22.051,13.16 C21.450997,13.16 21.0070014,13.1045006 20.719,12.9935 C20.4309986,12.8824994 20.2360005,12.6890014 20.134,12.413 C20.0319995,12.1369986 19.981,11.7140028 19.981,11.144 C19.981,10.7659981 20.0064997,10.3700021 20.0575,9.956 C20.1085003,9.54199793 20.1729996,9.19100144 20.251,8.903 L20.917,9.02 C20.7729993,9.72800354 20.701,10.384997 20.701,10.991 C20.701,11.5430028 20.7369996,11.9959982 20.809,12.35 L22.456,12.35 C22.7740016,12.35 23.0199991,12.3365001 23.194,12.3095 C23.3680009,12.2824999 23.4924996,12.2360003 23.5675,12.17 C23.6425004,12.1039997 23.68,12.0050007 23.68,11.873 L23.68,6.77 L24.4,6.77 L24.4,10.19 L25.48,10.19 Z M22.231,5.69 C22.1409996,5.69600003 22.0360006,5.6390006 21.916,5.519 C21.7959994,5.3989994 21.736,5.29100048 21.736,5.195 C21.736,5.09899952 21.7944994,4.99400057 21.9115,4.88 C22.0285006,4.76599943 22.1349995,4.70600003 22.231,4.7 C22.3270005,4.70600003 22.4334994,4.76599943 22.5505,4.88 C22.6675006,4.99400057 22.726,5.09899952 22.726,5.195 C22.726,5.28500045 22.6660006,5.39149938 22.546,5.5145 C22.4259994,5.63750061 22.3210004,5.69600003 22.231,5.69 Z" id="احصلعليةمن" fill="#FFFFFF" fill-rule="nonzero"></path>
        </g>
    </g>
</svg>