<svg xmlns="http://www.w3.org/2000/svg" width="36" height="23" viewBox="0 0 36 23"><g><g><path fill="#fff" d="M30.684 10.216c0-1.19-.078-2.166-.233-2.932-.156-.766-.373-1.37-.653-1.814-.28-.443-.606-.75-.98-.921a2.87 2.87 0 0 0-1.212-.257c-.435 0-.84.085-1.212.257-.373.17-.695.478-.964.921-.27.444-.482 1.048-.637 1.814-.156.766-.233 1.743-.233 2.932v2.599c0 1.189.077 2.166.233 2.931.155.766.368 1.37.637 1.814.27.443.59.745.964.906.373.162.777.242 1.212.242.435 0 .84-.08 1.213-.242.373-.16.7-.463.979-.906.28-.443.497-1.048.653-1.814.155-.765.233-1.742.233-2.931zM36 12.815c0 1.813-.192 3.365-.575 4.654-.384 1.29-.933 2.342-1.648 3.158a6.37 6.37 0 0 1-2.627 1.799c-1.036.383-2.217.574-3.544.574-1.326 0-2.508-.191-3.544-.574a6.37 6.37 0 0 1-2.627-1.799c-.715-.816-1.259-1.868-1.632-3.158-.373-1.29-.56-2.84-.56-4.654v-2.6c0-1.813.187-3.364.56-4.654.373-1.29.917-2.347 1.632-3.173A6.308 6.308 0 0 1 24.062.574C25.098.191 26.28 0 27.606 0c1.327 0 2.508.191 3.544.574a6.308 6.308 0 0 1 2.627 1.814c.715.826 1.264 1.884 1.648 3.173.383 1.29.575 2.841.575 4.655zM15.14 16.32c0 1.148-.197 2.145-.59 2.992a5.477 5.477 0 0 1-1.664 2.085c-.715.544-1.57.947-2.565 1.21-.995.261-2.093.392-3.295.392-1.223 0-2.4-.08-3.529-.242-1.13-.161-2.098-.362-2.906-.604a1.07 1.07 0 0 1-.42-.197A.456.456 0 0 1 0 21.58v-2.417c0-.162.052-.293.155-.393a.555.555 0 0 1 .405-.151h.062c1.098.1 2.191.17 3.28.211 1.088.04 2.057.06 2.906.06 1.12 0 1.912-.216 2.379-.65.466-.432.699-1.072.699-1.918v-.544c0-.343-.036-.67-.109-.983a2.132 2.132 0 0 0-.388-.83 1.89 1.89 0 0 0-.778-.575c-.331-.141-.746-.212-1.243-.212H1.896a.554.554 0 0 1-.42-.18.597.597 0 0 1-.17-.424v-2.57c0-.382.197-.573.59-.573h5.348c.497 0 .917-.076 1.259-.227.342-.151.616-.348.823-.59a2.08 2.08 0 0 0 .436-.83c.083-.313.124-.64.124-.983v-.423c0-.685-.212-1.234-.637-1.647-.425-.413-1.239-.62-2.44-.62-.54 0-1.053.01-1.54.03-.487.02-.974.046-1.46.076-.488.03-.985.066-1.493.106-.508.04-1.052.09-1.632.151H.622c-.166 0-.3-.05-.404-.151a.524.524 0 0 1-.156-.393V1.511c0-.161.062-.287.187-.378.124-.09.27-.156.435-.196a25.185 25.185 0 0 1 2.86-.65A20.27 20.27 0 0 1 7.026 0C8.29 0 9.425.11 10.43.332c1.005.222 1.855.58 2.55 1.073a4.88 4.88 0 0 1 1.6 1.92c.373.785.56 1.742.56 2.87v.424c0 .886-.254 1.763-.762 2.63-.508.866-1.176 1.53-2.005 1.994a4.98 4.98 0 0 1 2.036 1.859c.487.796.73 1.687.73 2.675z"/></g></g></svg>