<svg xmlns="http://www.w3.org/2000/svg" width="366.446" height="778.161" viewBox="0 0 366.446 778.161"><defs><style>.a{opacity:0.277;}.b,.c,.d,.e,.f{fill:none;stroke-linecap:round;stroke-linejoin:round;stroke-width:6px;}.b{stroke:#520039;}.c{stroke:#233d8c;}.d{stroke:#ee7623;}.e{stroke:#f21628;}.f{stroke:#eb697f;}</style></defs><g class="a" transform="translate(3 121.107)"><path class="b" d="M2326.216,471.375h0a32.8,32.8,0,0,1,32.8,32.8v623.532a32.8,32.8,0,0,1-32.8,32.8h0" transform="translate(-1998.57 -506.454)"/><rect class="c" width="65.6" height="689.132" rx="32.8" transform="translate(252.691 -35.079)"/><rect class="d" width="98.401" height="689.132" rx="49.2" transform="translate(154.29 -35.079)"/><rect class="e" width="65.6" height="772.161" rx="32.8" transform="translate(88.69 -118.107)"/><path class="f" d="M65.6,504.175v623.532a32.8,32.8,0,0,1-32.8,32.8h0a32.8,32.8,0,0,1-32.8-32.8V504.175a32.8,32.8,0,0,1,32.8-32.8" transform="translate(0 -506.454)"/><circle class="d" cx="13.608" cy="13.608" r="13.608" transform="translate(189.883 -74.013)"/><circle class="f" cx="13.608" cy="13.608" r="13.608" transform="translate(19.193 -14.717)"/></g></svg>