<svg xmlns="http://www.w3.org/2000/svg" width="266.874" height="179.515" viewBox="0 0 266.874 179.515"><defs><style>.a,.b{fill:none;stroke:#fff;stroke-linecap:round;stroke-linejoin:round;}.a{stroke-width:4.957px;}.b{stroke-width:6.071px;}.c,.d{fill:#fff;font-family:Changa-ExtraLight, Changa;font-weight:200;}.c{font-size:31px;}.d{font-size:33px;}</style></defs><g transform="translate(-1053.09 -570.771)"><g transform="translate(1055.568 573.249)"><path class="a" d="M1463.585,676.644h0a23.835,23.835,0,0,1,23.834,23.834v66a23.835,23.835,0,0,1-23.834,23.834h0" transform="translate(-1225.503 -616.312)"/><rect class="a" width="47.668" height="113.67" rx="23.834" transform="translate(183.617 60.332)"/><rect class="b" width="71.502" height="113.67" rx="35.751" transform="translate(112.115 60.332)"/><rect class="a" width="47.668" height="174.002" rx="23.834" transform="translate(64.446)"/><path class="a" d="M1103.237,700.478v66a23.835,23.835,0,0,1-23.834,23.834h0a23.835,23.835,0,0,1-23.834-23.834v-66a23.835,23.835,0,0,1,23.834-23.834" transform="translate(-1055.568 -616.312)"/><circle class="a" cx="9.888" cy="9.888" r="9.888" transform="translate(137.978 32.04)"/><circle class="a" cx="9.888" cy="9.888" r="9.888" transform="translate(13.946 75.128)"/></g><text class="c" transform="translate(1078.484 719.001)"><tspan x="-9.222" y="0">2</tspan></text><text class="d" transform="translate(1143.763 721.001)"><tspan x="-11.137" y="0">0</tspan></text><text class="c" transform="translate(1202.516 719.001)"><tspan x="-9.222" y="0">2</tspan></text><text class="c" transform="translate(1262.269 719.001)"><tspan x="-8.292" y="0">1</tspan></text></g></svg>