<?xml version="1.0" encoding="utf-8"?>
<!-- Generator: Adobe Illustrator 25.2.1, SVG Export Plug-In . SVG Version: 6.00 Build 0)  -->
<svg version="1.1" id="Layer_1" xmlns="http://www.w3.org/2000/svg" xmlns:xlink="http://www.w3.org/1999/xlink" x="0px" y="0px"
	 viewBox="0 0 266.9 179.5" style="enable-background:new 0 0 266.9 179.5;" xml:space="preserve">
<style type="text/css">
	.st0{fill:#FFFFFF;}
</style>
<g id="Group_177" transform="translate(-1053.09 -570.771)">
	<g id="Group_176" transform="translate(1055.568 573.249)">
		<g id="Path_67">
			<path class="st0" d="M238.1,176.5c-1.4,0-2.5-1.1-2.5-2.5s1.1-2.5,2.5-2.5c11.8,0,21.4-9.6,21.4-21.4v-66
				c0-11.8-9.6-21.4-21.4-21.4c-1.4,0-2.5-1.1-2.5-2.5s1.1-2.5,2.5-2.5l0,0c14.5,0,26.3,11.8,26.3,26.3v66
				C264.4,164.7,252.6,176.5,238.1,176.5z"/>
		</g>
		<g id="Rectangle_108">
			<path class="st0" d="M207.5,176.5c-14.5,0-26.3-11.8-26.3-26.3v-66c0-14.5,11.8-26.3,26.3-26.3s26.3,11.8,26.3,26.3v66
				C233.8,164.7,222,176.5,207.5,176.5z M207.5,62.8c-11.8,0-21.4,9.6-21.4,21.4v66c0,11.8,9.6,21.4,21.4,21.4s21.4-9.6,21.4-21.4
				v-66C228.8,72.4,219.2,62.8,207.5,62.8z"/>
		</g>
		<g id="Rectangle_109">
			<path class="st0" d="M147.9,177c-21.4,0-38.8-17.4-38.8-38.8V96.1c0-21.4,17.4-38.8,38.8-38.8s38.8,17.4,38.8,38.8v42.2
				C186.7,159.6,169.3,177,147.9,177z M147.9,63.4c-18,0-32.7,14.7-32.7,32.7v42.2c0,18,14.7,32.7,32.7,32.7s32.7-14.7,32.7-32.7
				V96.1C180.6,78,165.9,63.4,147.9,63.4z"/>
		</g>
		<g id="Rectangle_110">
			<path class="st0" d="M88.3,176.5c-14.5,0-26.3-11.8-26.3-26.3V23.8C62,9.3,73.8-2.5,88.3-2.5s26.3,11.8,26.3,26.3v126.3
				C114.6,164.7,102.8,176.5,88.3,176.5z M88.3,2.5c-11.8,0-21.4,9.6-21.4,21.4v126.3c0,11.8,9.6,21.4,21.4,21.4s21.4-9.6,21.4-21.4
				V23.8C109.6,12.1,100.1,2.5,88.3,2.5z"/>
		</g>
		<g id="Path_68">
			<path class="st0" d="M23.8,176.5c-14.5,0-26.3-11.8-26.3-26.3v-66c0-14.5,11.8-26.3,26.3-26.3c1.4,0,2.5,1.1,2.5,2.5
				c0,1.4-1.1,2.5-2.5,2.5c-11.8,0-21.4,9.6-21.4,21.4v66c0,11.8,9.6,21.4,21.4,21.4c11.8,0,21.4-9.6,21.4-21.4v-66
				c0-1.4,1.1-2.5,2.5-2.5s2.5,1.1,2.5,2.5v66C50.1,164.7,38.3,176.5,23.8,176.5z"/>
		</g>
		<g id="Ellipse_3">
			<path class="st0" d="M147.9,54.3c-6.8,0-12.4-5.5-12.4-12.4s5.5-12.4,12.4-12.4c6.8,0,12.4,5.5,12.4,12.4S154.7,54.3,147.9,54.3z
				 M147.9,34.5c-4.1,0-7.4,3.3-7.4,7.4c0,4.1,3.3,7.4,7.4,7.4c4.1,0,7.4-3.3,7.4-7.4C155.3,37.8,152,34.5,147.9,34.5z"/>
		</g>
		<g id="Ellipse_4">
			<path class="st0" d="M23.8,97.4c-6.8,0-12.4-5.5-12.4-12.4c0-6.8,5.5-12.4,12.4-12.4S36.2,78.2,36.2,85
				C36.2,91.8,30.7,97.4,23.8,97.4z M23.8,77.6c-4.1,0-7.4,3.3-7.4,7.4c0,4.1,3.3,7.4,7.4,7.4s7.4-3.3,7.4-7.4
				C31.2,80.9,27.9,77.6,23.8,77.6z"/>
		</g>
	</g>
	<g id="Path_74">
		<path class="st0" d="M1070.3,719v-4.7c0-0.6,0.1-1.2,0.3-1.8c0.2-0.6,0.5-1.1,0.9-1.6c0.5-0.6,1.1-1,1.7-1.4
			c0.9-0.5,1.8-1,2.7-1.5c1.1-0.5,2.4-1.1,3.9-1.7v-1.7c-0.4-0.1-0.8-0.1-1.2-0.2c-0.5,0-1,0-1.7,0c-0.9,0-1.7,0.1-2.6,0.2
			c-1,0.1-1.9,0.2-2.8,0.4l-0.8-4.9c1.3-0.3,2.7-0.6,4-0.7c1.3-0.2,2.5-0.3,3.8-0.3c2.7,0,4.7,0.5,6,1.4c1.3,1,2.1,2.6,2,4.2
			c0,0.7-0.1,1.4-0.2,2c-0.2,0.6-0.4,1.2-0.8,1.6c-0.5,0.6-1.1,1.1-1.7,1.5c-0.9,0.6-1.9,1.1-2.9,1.5c-1.2,0.5-2.7,1.2-4.5,1.9v0.6
			h9.9v5.1H1070.3z"/>
	</g>
	<g id="Path_73">
		<path class="st0" d="M1133.9,710.7c0-1.7,0.1-3.5,0.5-5.2c0.2-1.2,0.8-2.4,1.6-3.3c0.8-0.9,1.9-1.5,3-1.8c1.5-0.4,3.1-0.6,4.7-0.5
			c1.6,0,3.2,0.1,4.7,0.5c1.1,0.3,2.2,0.9,3,1.8c0.8,1,1.4,2.1,1.6,3.3c0.4,1.7,0.5,3.4,0.5,5.2c0,1.4-0.1,2.9-0.3,4.3
			c-0.2,1.1-0.5,2.1-1,3.1c-0.4,0.8-1,1.5-1.8,2c-0.8,0.5-1.8,0.9-2.8,1.1c-1.3,0.2-2.6,0.3-3.9,0.3c-1.3,0-2.6-0.1-3.9-0.3
			c-1-0.2-1.9-0.6-2.8-1.1c-0.8-0.5-1.4-1.2-1.8-2c-0.5-1-0.8-2-1-3.1C1134,713.6,1133.9,712.1,1133.9,710.7z M1141,705.5v8.6
			c-0.1,0.5,0.1,1,0.4,1.4c0.5,0.3,1.1,0.4,1.7,0.3h3.4v-8.6c0.1-0.5-0.1-1-0.5-1.4c-0.6-0.3-1.2-0.4-1.8-0.3H1141z"/>
	</g>
	<g id="Path_72">
		<path class="st0" d="M1194.4,719v-4.7c0-0.6,0.1-1.2,0.3-1.8c0.2-0.6,0.5-1.1,0.9-1.6c0.5-0.6,1.1-1,1.7-1.4
			c0.9-0.5,1.8-1,2.7-1.5c1.1-0.5,2.4-1.1,3.9-1.7v-1.7c-0.4-0.1-0.8-0.1-1.2-0.2c-0.5,0-1,0-1.7,0c-0.9,0-1.7,0.1-2.6,0.2
			c-1,0.1-1.9,0.2-2.8,0.4l-0.8-4.9c1.3-0.3,2.7-0.6,4-0.7c1.3-0.2,2.5-0.3,3.8-0.3c2.7,0,4.7,0.5,6,1.4c1.3,1,2.1,2.6,2,4.2
			c0,0.7-0.1,1.4-0.2,2c-0.2,0.6-0.4,1.2-0.8,1.6c-0.5,0.6-1.1,1.1-1.7,1.5c-0.9,0.6-1.9,1.1-2.9,1.5c-1.2,0.5-2.7,1.2-4.5,1.9v0.6
			h9.9v5.1H1194.4z"/>
	</g>
	<g id="Path_71">
		<path class="st0" d="M1254.8,719v-5.1h5.2v-8.6l-5.5,0.4v-5.6l11.7-0.9v14.7h3.8v5.1H1254.8z"/>
	</g>
</g>
</svg>
