<?xml version="1.0" encoding="utf-8"?>
<!-- Generator: Adobe Illustrator 21.0.2, SVG Export Plug-In . SVG Version: 6.00 Build 0)  -->
<svg version="1.1" id="Layer_1" xmlns="http://www.w3.org/2000/svg" xmlns:xlink="http://www.w3.org/1999/xlink" x="0px" y="0px"
	 viewBox="0 0 43 43" style="enable-background:new 0 0 43 43;" xml:space="preserve">
<style type="text/css">
	.st0{opacity:0.47;enable-background:new    ;}
	.st1{fill:#C0C0C0;}
	.st2{fill:#FFFFFF;}
	.st3{opacity:0.18;}
	.st4{fill:#231F20;}
</style>
<g>
	<g id="Ellipse_529_copy" class="st0">
		<circle class="st1" cx="21" cy="21" r="18"/>
	</g>
</g>
<g>
	<g id="Ellipse_529_copy_1_" class="st0">
		<path class="st2" d="M21,40C10.5,40,2,31.5,2,21S10.5,2,21,2s19,8.5,19,19S31.5,40,21,40z M21,4C11.6,4,4,11.6,4,21s7.6,17,17,17
			s17-7.6,17-17S30.4,4,21,4z"/>
	</g>
</g>
<g class="st3">
	<g>
		<path class="st4" d="M21.2,31.2c-1.6,0-2.9-0.4-3.8-1.3c-1-0.9-1.5-2-1.5-3.4c0-1.7,1-3.3,3-4.6c-0.5-0.5-1-1.2-1.4-2.1
			c-0.4-0.8-0.6-1.6-0.6-2.3c0-1.7,0.6-3.1,1.7-4.1c1.1-1,2.7-1.5,4.7-1.5c0.7,0,1.4,0.1,2.1,0.2s1.3,0.3,1.8,0.5l-1,2.7
			c-0.6-0.3-1.2-0.4-1.6-0.5c-0.5-0.1-0.9-0.1-1.4-0.1c-1,0-1.7,0.3-2.2,0.8c-0.5,0.5-0.8,1.2-0.8,2.2c0,0.7,0.1,1.2,0.2,1.7
			c0.2,0.5,0.4,0.9,0.7,1.3c1.3-0.6,2.7-1.1,4-1.5l0.8,2.6c-2.4,0.6-4.1,1.3-5.1,2s-1.5,1.6-1.5,2.6c0,0.6,0.2,1.1,0.7,1.5
			s1.1,0.6,1.9,0.6c1,0,2.2-0.2,3.4-0.5l0.4,2.5C24.2,30.9,22.7,31.2,21.2,31.2z"/>
	</g>
</g>
<g>
	<g>
		<path class="st2" d="M20.5,30.5c-1.6,0-2.9-0.4-3.8-1.3c-1-0.9-1.5-2-1.5-3.4c0-1.7,1-3.3,3-4.6c-0.5-0.5-1-1.2-1.4-2.1
			c-0.4-0.8-0.6-1.6-0.6-2.3c0-1.7,0.6-3.1,1.7-4.1c1.1-1,2.7-1.5,4.7-1.5c0.7,0,1.4,0.1,2.1,0.2s1.3,0.3,1.8,0.5l-1,2.7
			c-0.6-0.3-1.2-0.4-1.6-0.5C23.4,14,22.9,14,22.5,14c-1,0-1.7,0.3-2.2,0.8c-0.5,0.5-0.8,1.2-0.8,2.2c0,0.7,0.1,1.2,0.2,1.7
			c0.2,0.5,0.4,0.9,0.7,1.3c1.3-0.6,2.7-1.1,4-1.5l0.8,2.6c-2.4,0.6-4.1,1.3-5.1,2s-1.5,1.6-1.5,2.6c0,0.6,0.2,1.1,0.7,1.5
			s1.1,0.6,1.9,0.6c1,0,2.2-0.2,3.4-0.5l0.4,2.5C23.6,30.2,22,30.5,20.5,30.5z"/>
	</g>
</g>
</svg>
