<?xml version="1.0" encoding="utf-8"?>
<!-- Generator: Adobe Illustrator 21.0.2, SVG Export Plug-In . SVG Version: 6.00 Build 0)  -->
<svg version="1.1" id="Layer_1" xmlns="http://www.w3.org/2000/svg" xmlns:xlink="http://www.w3.org/1999/xlink" x="0px" y="0px"
	 viewBox="0 0 43 43" style="enable-background:new 0 0 43 43;" xml:space="preserve">
<style type="text/css">
	.st0{opacity:0.47;fill:#C0C0C0;enable-background:new    ;}
	.st1{opacity:0.47;fill:none;stroke:#FFFFFF;stroke-width:2;stroke-linejoin:round;enable-background:new    ;}
	.st2{fill:#FFFFFF;}
</style>
<g>
	<circle id="Ellipse_529_copy" class="st0" cx="21" cy="21" r="18"/>
</g>
<g>
	<circle id="Ellipse_529_copy_1_" class="st1" cx="21" cy="21" r="18"/>
</g>
<g>
	<path class="st2" d="M20.4,26.8c0,0.1,0,0.1,0,0.2c0,0.1-0.1,0.1-0.1,0.1c-0.2,0-0.4,0-0.7,0c-0.3,0-0.6,0-1,0c-0.4,0-0.7,0-1.1,0
		s-0.7,0-1,0c-1.4,0-2.4-0.3-3.1-0.8c-0.7-0.6-1-1.5-1-2.8V16c0-1.3,0.3-2.2,1-2.8c0.7-0.6,1.7-0.8,3.1-0.8c0.3,0,0.6,0,1,0
		c0.4,0,0.7,0,1.1,0c0.4,0,0.7,0,1,0c0.3,0,0.6,0,0.8,0c0.1,0,0.1,0,0.1,0.1c0,0.1,0,0.1,0,0.2v1c0,0.2-0.1,0.2-0.2,0.2h-3.8
		c-0.5,0-0.9,0-1.2,0.1c-0.3,0.1-0.6,0.2-0.7,0.4c-0.2,0.2-0.3,0.4-0.3,0.6C14,15.3,14,15.7,14,16v2.7h6c0.1,0,0.2,0,0.3,0.1
		c0.1,0.1,0.1,0.2,0.1,0.3v0.7c0,0.1,0,0.2-0.1,0.3c-0.1,0.1-0.2,0.1-0.3,0.1h-6v3.3c0,0.4,0,0.7,0.1,0.9c0.1,0.3,0.2,0.5,0.3,0.6
		c0.2,0.2,0.4,0.3,0.7,0.4c0.3,0.1,0.7,0.1,1.2,0.1h3.8c0.1,0,0.2,0.1,0.2,0.2V26.8z"/>
	<path class="st2" d="M31,26.6c0,0.1,0,0.2-0.1,0.3S30.7,27,30.6,27h-0.9c-0.1,0-0.2,0-0.3-0.1c-0.1-0.1-0.1-0.2-0.1-0.3v-6.4
		c0-0.5,0-0.9-0.1-1.2c-0.1-0.3-0.2-0.6-0.4-0.8s-0.4-0.3-0.7-0.4c-0.3-0.1-0.6-0.1-1-0.1c-0.4,0-0.8,0.1-1.3,0.2
		c-0.4,0.1-0.9,0.3-1.3,0.5v8.2c0,0.1,0,0.2-0.1,0.3C24.3,27,24.2,27,24.1,27h-1c-0.1,0-0.2,0-0.3-0.1c-0.1-0.1-0.1-0.2-0.1-0.3
		v-9.9c0-0.1,0-0.2,0.1-0.3c0.1-0.1,0.2-0.1,0.3-0.1h1c0.1,0,0.2,0,0.3,0.1s0.1,0.2,0.1,0.3v0.4c0.5-0.3,1.1-0.5,1.5-0.7
		s1-0.2,1.6-0.2c1.2,0,2,0.4,2.6,1.1c0.5,0.7,0.8,1.7,0.8,3V26.6z"/>
</g>
</svg>
