<?xml version="1.0" encoding="utf-8"?>
<!-- Generator: Adobe Illustrator 22.1.0, SVG Export Plug-In . SVG Version: 6.00 Build 0)  -->
<svg version="1.1" id="Layer_1" xmlns="http://www.w3.org/2000/svg" xmlns:xlink="http://www.w3.org/1999/xlink" x="0px" y="0px"
	 viewBox="0 0 151.1 83" style="enable-background:new 0 0 151.1 83;" xml:space="preserve">
<style type="text/css">
	.st0{fill:#FEFEFE;}
</style>
<g>
	<g>
		<path class="st0" d="M135.8,62.8l8.6-43c0.2-0.8-0.4-1.5-1.3-1.5h-27.8c-0.6,0-1.1,0.4-1.3,1l-5.5,25.9c-0.2,0.8,0.4,1.5,1.3,1.5
			h14.3c0.8,0,1.4,0.8,1.3,1.5l0,0c-0.1,0.6-0.6,1-1.3,1h-15.4c-0.6,0-1.1,0.4-1.3,1l-2.6,12c-0.2,0.8,0.4,1.6,1.3,1.6h28.4
			C135.2,63.8,135.7,63.4,135.8,62.8z M124.1,33.9c0.1-0.6,0.6-1.1,1.3-1.1h1.6c0.8,0,1.4,0.8,1.3,1.5c-0.1,0.6-0.6,1-1.3,1h-1.6
			C124.6,35.4,124,34.7,124.1,33.9z"/>
		<path class="st0" d="M109.3,19.8c0.2-0.8-0.4-1.5-1.3-1.5H97.4c-0.6,0-1.1,0.4-1.3,1l-6.3,29c-0.1,0.6-0.7,1-1.3,1h-0.4
			c-0.8,0-1.4-0.7-1.3-1.5l8.7-42.5c0.2-0.8-0.4-1.5-1.3-1.5H83.9c-0.6,0-1.1,0.4-1.3,1L70.4,62.3c-0.2,0.8,0.4,1.6,1.3,1.6H99
			c0.6,0,1.1-0.4,1.3-1L109.3,19.8z"/>
		<path class="st0" d="M97,68.3H86.6c-0.6,0-1.1,0.4-1.3,1l-1.9,8.5c-0.2,0.8,0.4,1.6,1.3,1.6h10.4c0.6,0,1.1-0.4,1.3-1l1.9-8.5
			C98.4,69,97.8,68.3,97,68.3z"/>
		<path class="st0" d="M42.6,29.3h10.5c0.6,0,1.1-0.4,1.3-1l1.7-8.5c0.2-0.8-0.4-1.5-1.3-1.5H44.4c-0.6,0-1.1,0.4-1.3,1l-1.8,8.5
			C41.1,28.5,41.7,29.3,42.6,29.3z"/>
		<path class="st0" d="M30,44.5h19.9c0.6,0,1.1-0.4,1.3-1l1.7-8.5c0.2-0.8-0.4-1.5-1.3-1.5H31.9c-0.6,0-1.1,0.4-1.3,1l-1.9,8.5
			C28.6,43.7,29.2,44.5,30,44.5z"/>
		<path class="st0" d="M81.6,68.3H71.2c-0.6,0-1.1,0.4-1.3,1l-1.9,8.5c-0.2,0.8,0.4,1.6,1.3,1.6h10.4c0.6,0,1.1-0.4,1.3-1l1.9-8.5
			C83,69,82.4,68.3,81.6,68.3z"/>
		<path class="st0" d="M77.3,5.2c0.2-0.8-0.4-1.5-1.3-1.5H65.6c-0.6,0-1.1,0.4-1.3,1l-9.3,43.6c-0.1,0.6-0.6,1-1.3,1H24.5
			c-0.8,0-1.4-0.7-1.3-1.5l3.5-17c0.2-0.8-0.4-1.5-1.3-1.5h-2.7c-5.3,0-9.8,3.7-10.9,8.8L6.7,62.2C6.5,63,7.1,63.8,8,63.8h56.3
			c0.6,0,1.1-0.4,1.3-1L77.3,5.2z"/>
	</g>
</g>
</svg>
