<svg xmlns="http://www.w3.org/2000/svg" width="28" height="28" viewBox="0 0 28 28"><g><g><path fill="#a6a6a6" d="M18.91 12.993c.61 2.973-1.949 5.988-4.875 6.007-2.41.015-4.66-1.934-4.992-4.3C8.64 11.81 11.14 9.027 13.97 9c2.358-.007 4.481 1.762 4.94 3.993zM13.853 8c-4.393.097-7.043 5.078-5.325 8.63 1.343 2.778 4.979 4.124 7.792 2.936 2.53-1.067 4.097-4.004 3.58-6.685-.527-2.742-3.13-4.856-5.89-4.882l-.156.001zm1.617-6.9a37.256 37.256 0 0 0 .139 2.395c.06.363.391.437.391.437a10.25 10.25 0 0 1 2.892 1.044c.464.251.975.724 1.34.498.701-.432 1.263-1.076 1.862-1.648l.09.073c.733.596 1.4 1.27 1.99 2.006l-.013.014a37.23 37.23 0 0 0-1.595 1.791c-.215.299-.032.586-.032.586a10.26 10.26 0 0 1 1.27 2.663c.172.554.19 1.315.631 1.42.802.19 1.654.131 2.482.15l.013.116c.096.94.092 1.888-.013 2.825H26.9c-.8.021-1.6.067-2.395.14-.363.059-.436.39-.436.39-.2.99-.54 1.95-1.015 2.837-.266.499-.76 1.02-.528 1.396.432.7 1.077 1.262 1.649 1.861l-.073.09a13.25 13.25 0 0 1-2.007 1.99l-.013-.013a36.805 36.805 0 0 0-1.792-1.595c-.298-.215-.585-.032-.585-.032-.842.558-1.76.995-2.724 1.288-.539.164-1.258.184-1.36.613-.19.801-.131 1.654-.15 2.482l-.116.013a13.28 13.28 0 0 1-2.825-.013V26.9c-.021-.8-.068-1.6-.14-2.395-.059-.363-.391-.436-.391-.436-.99-.2-1.949-.54-2.837-1.015-.497-.266-1.02-.76-1.395-.528-.7.432-1.262 1.076-1.862 1.648l-.09-.072c-.733-.597-1.4-1.27-1.99-2.007l.014-.013a37.125 37.125 0 0 0 1.595-1.792c.215-.298.032-.585.032-.585a10.392 10.392 0 0 1-1.307-2.784c-.149-.502-.177-1.2-.595-1.3-.801-.19-1.654-.13-2.482-.15l-.013-.116c-.096-.94-.092-1.887.013-2.825H1.1c.8-.02 1.597-.067 2.395-.139A.538.538 0 0 0 3.932 12c.2-.99.54-1.95 1.014-2.837.267-.498.76-1.02.528-1.395-.432-.701-1.076-1.263-1.648-1.862l.073-.09a13.27 13.27 0 0 1 2.006-1.989l.014.013c.58.551 1.178 1.084 1.791 1.595.299.215.586.032.586.032a10.385 10.385 0 0 1 2.723-1.289c.538-.163 1.259-.184 1.36-.613.163-.686.115-1.406.14-2.108.004-.124.008-.249.01-.374l.058-.006c.45-.048.902-.074 1.354-.077.771-.002 1.53.102 1.53.102zM5.537 2.848a14.135 14.135 0 0 0-2.689 2.689c-.285.375-.034.738-.034.738.56.576 1.103 1.17 1.623 1.781l-.024.038a11.478 11.478 0 0 0-1.378 3.348s-.649.05-1.11.072c-.798.04-1.698-.098-1.786.523a13.96 13.96 0 0 0-.063 3.423c.102.966.551.988.551.988.804.01 1.607.048 2.408.112l.01.044a11.524 11.524 0 0 0 1.192 3.006c.346.599.153.391.153.391a35.9 35.9 0 0 1-1.576 1.726c-.274.324-.004.687-.004.687.78 1.033 1.7 1.96 2.727 2.74.375.285.738.034.738.034a35.8 35.8 0 0 1 1.781-1.623l.038.024c.924.565 1.922.996 2.969 1.283.668.178.385.168.385.168a36.24 36.24 0 0 1 .106 2.335c.035.422.483.488.483.488a14.15 14.15 0 0 0 3.865.01c.467-.065.546-.498.546-.498.01-.804.047-1.607.112-2.408l.044-.01a11.48 11.48 0 0 0 3.341-1.392s.494.424.836.733c.59.535 1.128 1.273 1.633.894a13.957 13.957 0 0 0 2.464-2.376c.612-.755.31-1.089.31-1.089a35.893 35.893 0 0 1-1.623-1.781l.023-.038c.566-.926.998-1.924 1.284-2.969.178-.668.168-.385.168-.385a36.488 36.488 0 0 1 2.334-.106c.35-.03.474-.366.506-.61.158-1.195.159-2.413.008-3.612-.091-.704-.514-.672-.514-.672a35.783 35.783 0 0 1-2.407-.112l-.01-.044a11.498 11.498 0 0 0-1.192-3.007c-.346-.598-.153-.39-.153-.39a36.03 36.03 0 0 1 1.576-1.726c.226-.268.075-.595-.073-.789a14.02 14.02 0 0 0-2.3-2.363c-.755-.611-1.088-.31-1.088-.31-.576.562-1.17 1.103-1.782 1.624l-.038-.024A11.51 11.51 0 0 0 16.94 3.13c-.668-.179-.385-.168-.385-.168a35.863 35.863 0 0 1-.106-2.334c-.035-.423-.483-.49-.483-.49A14.137 14.137 0 0 0 12.1.13c-.467.064-.546.498-.546.498-.01.803-.048 1.606-.112 2.406l-.044.01a11.507 11.507 0 0 0-3.006 1.192C7.793 4.582 8 4.39 8 4.39a36.132 36.132 0 0 1-1.726-1.576c-.033-.028-.054-.056-.175-.11-.372-.106-.563.144-.563.144z"/></g></g></svg>