<?xml version="1.0" encoding="UTF-8" standalone="no"?>
<svg
   xmlns:dc="http://purl.org/dc/elements/1.1/"
   xmlns:cc="http://creativecommons.org/ns#"
   xmlns:rdf="http://www.w3.org/1999/02/22-rdf-syntax-ns#"
   xmlns:svg="http://www.w3.org/2000/svg"
   xmlns="http://www.w3.org/2000/svg"
   xmlns:sodipodi="http://sodipodi.sourceforge.net/DTD/sodipodi-0.dtd"
   xmlns:inkscape="http://www.inkscape.org/namespaces/inkscape"
   version="1.1"
   style="enable-background:new 0 0 151.1 83;"
   xml:space="preserve"
   width="164"
   height="97"
   id="svg3399"
   inkscape:version="0.91 r13725"
   sodipodi:docname="favicon.svg"
   inkscape:export-filename="/home/kiran/weyyak/source/weyyak-web-react/public/favicon_512.png"
   inkscape:export-xdpi="475.05154"
   inkscape:export-ydpi="475.05154"><metadata
     id="metadata3422"><rdf:RDF><cc:Work
         rdf:about=""><dc:format>image/svg+xml</dc:format><dc:type
           rdf:resource="http://purl.org/dc/dcmitype/StillImage" /></cc:Work></rdf:RDF></metadata><defs
     id="defs3420" /><sodipodi:namedview
     pagecolor="#ffffff"
     bordercolor="#666666"
     borderopacity="1"
     objecttolerance="10"
     gridtolerance="10"
     guidetolerance="10"
     inkscape:pageopacity="0"
     inkscape:pageshadow="2"
     inkscape:window-width="1535"
     inkscape:window-height="876"
     id="namedview3418"
     showgrid="false"
     inkscape:zoom="3.8092784"
     inkscape:cx="63.419144"
     inkscape:cy="32.633012"
     inkscape:window-x="65"
     inkscape:window-y="24"
     inkscape:window-maximized="1"
     inkscape:current-layer="layer1" /><rect
     id="backgroundrect"
     width="100%"
     height="100%"
     x="0"
     y="0"
     fill="none"
     stroke="none"
     class=""
     style="" /><style
     type="text/css"
     id="style3402">
	.st0{fill:#FEFEFE;}
</style><g
     class="currentLayer"
     id="g3404"
     style=""><title
       id="title3406">Layer 1</title><rect
       stroke-dashoffset=""
       id="svg_10"
       x="0.0000017708061932353303"
       y="5.149276915972223e-7"
       width="164.00000759897324"
       height="97.33332895245077"
       style="color: rgb(255, 116, 15);"
       class=""
       fill-rule="nonzero"
       fill="#ff740f" /><g
       id="svg_1"
       class=""><g
         id="svg_2"><path
           class="st0"
           d="M137.13333587646486,72.46666412353515 l8.6,-43 c0.2,-0.8 -0.4,-1.5 -1.3,-1.5 h-27.8 c-0.6000000000000002,0 -1.1,0.4 -1.3,1 l-5.5,25.9 c-0.2,0.8 0.4,1.5 1.3,1.5 h14.3 c0.8,0 1.4,0.8 1.3,1.5 l0,0 c-0.1,0.6000000000000002 -0.6000000000000002,1 -1.3,1 h-15.4 c-0.6000000000000002,0 -1.1,0.4 -1.3,1 l-2.6,12 c-0.2,0.8 0.4,1.6 1.3,1.6 h28.4 C136.53333587646483,73.46666412353515 137.03333587646483,73.06666412353516 137.13333587646486,72.46666412353515 zM125.43333587646484,43.56666412353516 c0.1,-0.6000000000000002 0.6000000000000002,-1.1 1.3,-1.1 h1.6 c0.8,0 1.4,0.8 1.3,1.5 c-0.1,0.6000000000000002 -0.6000000000000002,1 -1.3,1 h-1.6 C125.93333587646484,45.06666412353516 125.33333587646484,44.36666412353516 125.43333587646484,43.56666412353516 z"
           id="svg_3" /><path
           class="st0"
           d="M110.63333587646486,29.466664123535153 c0.2,-0.8 -0.4,-1.5 -1.3,-1.5 H98.73333587646485 c-0.6000000000000002,0 -1.1,0.4 -1.3,1 l-6.3,29 c-0.1,0.6000000000000002 -0.7000000000000002,1 -1.3,1 h-0.4 c-0.8,0 -1.4,-0.7000000000000002 -1.3,-1.5 l8.7,-42.5 c0.2,-0.8 -0.4,-1.5 -1.3,-1.5 H85.23333587646485 c-0.6000000000000002,0 -1.1,0.4 -1.3,1 L71.73333587646485,71.96666412353515 c-0.2,0.8 0.4,1.6 1.3,1.6 H100.33333587646484 c0.6000000000000002,0 1.1,-0.4 1.3,-1 L110.63333587646486,29.466664123535153 z"
           id="svg_4" /><path
           class="st0"
           d="M98.33333587646484,77.96666412353515 H87.93333587646484 c-0.6000000000000002,0 -1.1,0.4 -1.3,1 l-1.9,8.5 c-0.2,0.8 0.4,1.6 1.3,1.6 h10.4 c0.6000000000000002,0 1.1,-0.4 1.3,-1 l1.9,-8.5 C99.73333587646485,78.66666412353516 99.13333587646486,77.96666412353515 98.33333587646484,77.96666412353515 z"
           id="svg_5" /><path
           class="st0"
           d="M43.93333587646484,38.96666412353515 h10.5 c0.6000000000000002,0 1.1,-0.4 1.3,-1 l1.7000000000000002,-8.5 c0.2,-0.8 -0.4,-1.5 -1.3,-1.5 H45.73333587646485 c-0.6000000000000002,0 -1.1,0.4 -1.3,1 l-1.8,8.5 C42.43333587646484,38.166664123535156 43.03333587646485,38.96666412353515 43.93333587646484,38.96666412353515 z"
           id="svg_6" /><path
           class="st0"
           d="M31.333335876464844,54.166664123535156 h19.9 c0.6000000000000002,0 1.1,-0.4 1.3,-1 l1.7000000000000002,-8.5 c0.2,-0.8 -0.4,-1.5 -1.3,-1.5 H33.23333587646485 c-0.6000000000000002,0 -1.1,0.4 -1.3,1 l-1.9,8.5 C29.933335876464838,53.36666412353516 30.533335876464847,54.166664123535156 31.333335876464844,54.166664123535156 z"
           id="svg_7" /><path
           class="st0"
           d="M82.93333587646484,77.96666412353515 H72.53333587646485 c-0.6000000000000002,0 -1.1,0.4 -1.3,1 l-1.9,8.5 c-0.2,0.8 0.4,1.6 1.3,1.6 h10.4 c0.6000000000000002,0 1.1,-0.4 1.3,-1 l1.9,-8.5 C84.33333587646484,78.66666412353516 83.73333587646485,77.96666412353515 82.93333587646484,77.96666412353515 z"
           id="svg_8" /><path
           class="st0"
           d="M78.63333587646486,14.866664123535159 c0.2,-0.8 -0.4,-1.5 -1.3,-1.5 H66.93333587646484 c-0.6000000000000002,0 -1.1,0.4 -1.3,1 l-9.3,43.6 c-0.1,0.6000000000000002 -0.6000000000000002,1 -1.3,1 H25.833335876464844 c-0.8,0 -1.4,-0.7000000000000002 -1.3,-1.5 l3.5,-17 c0.2,-0.8 -0.4,-1.5 -1.3,-1.5 h-2.7 c-5.3,0 -9.8,3.7 -10.9,8.8 L8.033335876464847,71.86666412353516 C7.833335876464844,72.66666412353516 8.433335876464845,73.46666412353515 9.333335876464844,73.46666412353515 h56.3 c0.6000000000000002,0 1.1,-0.4 1.3,-1 L78.63333587646486,14.866664123535159 z"
           id="svg_9" /></g></g></g><rect
     style="fill:#ff740f;fill-opacity:1"
     id="rect4226"
     width="28.08931"
     height="15.751015"
     x="34.652233"
     y="52.109608" /><g
     inkscape:groupmode="layer"
     id="layer1"
     inkscape:label="LOGO"
     sodipodi:insensitive="true"
     style="display:inline"><rect
       style="fill:#ff740f;fill-opacity:1;fill-rule:evenodd;stroke:#000000;stroke-width:1px;stroke-linecap:butt;stroke-linejoin:miter;stroke-opacity:1"
       id="rect3424"
       width="165"
       height="165"
       x="-0.33220994"
       y="-27.502707" /><rect
       style="fill:#ff740f;fill-opacity:1"
       id="rect4269"
       width="170"
       height="170"
       x="-1.3125845"
       y="-28.483086"
       inkscape:export-xdpi="25.41"
       inkscape:export-ydpi="25.41" /></g><g
     inkscape:groupmode="layer"
     id="layer2"
     inkscape:label="Background"
     sodipodi:insensitive="true"
     style="display:inline" /><g
     id="g4245"
     class="currentLayer"
     transform="translate(2,4)"><title
       id="title4247">Layer 1</title><rect
       class=""
       style="color:#ff740f;fill:#ff740f;fill-rule:nonzero"
       height="97.333328"
       width="164"
       y="5.1492771e-07"
       x="1.7708062e-06"
       id="rect4249"
       stroke-dashoffset="" /><g
       class=""
       id="g4251"><g
         id="g4253"><path
           id="path4255"
           d="m 137.13334,72.466664 8.6,-43 c 0.2,-0.8 -0.4,-1.5 -1.3,-1.5 l -27.8,0 c -0.6,0 -1.1,0.4 -1.3,1 l -5.5,25.9 c -0.2,0.8 0.4,1.5 1.3,1.5 l 14.3,0 c 0.8,0 1.4,0.8 1.3,1.5 l 0,0 c -0.1,0.6 -0.6,1 -1.3,1 l -15.4,0 c -0.6,0 -1.1,0.4 -1.3,1 l -2.6,12 c -0.2,0.8 0.4,1.6 1.3,1.6 l 28.4,0 c 0.7,0 1.2,-0.4 1.3,-1 z m -11.7,-28.9 c 0.1,-0.6 0.6,-1.1 1.3,-1.1 l 1.6,0 c 0.8,0 1.4,0.8 1.3,1.5 -0.1,0.6 -0.6,1 -1.3,1 l -1.6,0 c -0.8,0.1 -1.4,-0.6 -1.3,-1.4 z"
           class="st0"
           inkscape:connector-curvature="0"
           style="fill:#fefefe" /><path
           id="path4257"
           d="m 110.63334,29.466664 c 0.2,-0.8 -0.4,-1.5 -1.3,-1.5 l -10.600004,0 c -0.6,0 -1.1,0.4 -1.3,1 l -6.3,29 c -0.1,0.6 -0.7,1 -1.3,1 l -0.4,0 c -0.8,0 -1.4,-0.7 -1.3,-1.5 l 8.7,-42.5 c 0.2,-0.8 -0.4,-1.5 -1.3,-1.5 l -10.3,0 c -0.6,0 -1.1,0.4 -1.3,1 l -12.2,57.5 c -0.2,0.8 0.4,1.6 1.3,1.6 l 27.300004,0 c 0.6,0 1.1,-0.4 1.3,-1 l 9,-43.1 z"
           class="st0"
           inkscape:connector-curvature="0"
           style="fill:#fefefe" /><path
           id="path4259"
           d="m 98.333336,77.966664 -10.4,0 c -0.6,0 -1.1,0.4 -1.3,1 l -1.9,8.5 c -0.2,0.8 0.4,1.6 1.3,1.6 l 10.4,0 c 0.6,0 1.1,-0.4 1.3,-1 l 1.9,-8.5 c 0.1,-0.9 -0.5,-1.6 -1.3,-1.6 z"
           class="st0"
           inkscape:connector-curvature="0"
           style="fill:#fefefe" /><path
           id="path4261"
           d="m 43.933336,38.966664 10.5,0 c 0.6,0 1.1,-0.4 1.3,-1 l 1.7,-8.5 c 0.2,-0.8 -0.4,-1.5 -1.3,-1.5 l -10.4,0 c -0.6,0 -1.1,0.4 -1.3,1 l -1.8,8.5 c -0.2,0.7 0.4,1.5 1.3,1.5 z"
           class="st0"
           inkscape:connector-curvature="0"
           style="fill:#fefefe" /><path
           id="path4263"
           d="m 31.333336,54.166664 19.9,0 c 0.6,0 1.1,-0.4 1.3,-1 l 1.7,-8.5 c 0.2,-0.8 -0.4,-1.5 -1.3,-1.5 l -19.7,0 c -0.6,0 -1.1,0.4 -1.3,1 l -1.9,8.5 c -0.1,0.7 0.5,1.5 1.3,1.5 z"
           class="st0"
           inkscape:connector-curvature="0"
           style="fill:#fefefe" /><path
           id="path4265"
           d="m 82.933336,77.966664 -10.4,0 c -0.6,0 -1.1,0.4 -1.3,1 l -1.9,8.5 c -0.2,0.8 0.4,1.6 1.3,1.6 l 10.4,0 c 0.6,0 1.1,-0.4 1.3,-1 l 1.9,-8.5 c 0.1,-0.9 -0.5,-1.6 -1.3,-1.6 z"
           class="st0"
           inkscape:connector-curvature="0"
           style="fill:#fefefe" /><path
           id="path4267"
           d="m 78.633336,14.866664 c 0.2,-0.8 -0.4,-1.5 -1.3,-1.5 l -10.4,0 c -0.6,0 -1.1,0.4 -1.3,1 l -9.3,43.6 c -0.1,0.6 -0.6,1 -1.3,1 l -29.2,0 c -0.8,0 -1.4,-0.7 -1.3,-1.5 l 3.5,-17 c 0.2,-0.8 -0.4,-1.5 -1.3,-1.5 l -2.7,0 c -5.3,0 -9.8,3.7 -10.9,8.8 l -5.1000001,24.1 c -0.2,0.8 0.4,1.6 1.3,1.6 l 56.3000001,0 c 0.6,0 1.1,-0.4 1.3,-1 l 11.7,-57.6 z"
           class="st0"
           inkscape:connector-curvature="0"
           style="fill:#fefefe" /></g></g></g></svg>