<svg xmlns="http://www.w3.org/2000/svg" width="46" height="46" viewBox="0 0 46 46"><g><g><path fill="#303030" d="M23 46c12.703 0 23-10.297 23-23S35.703 0 23 0 0 10.297 0 23s10.297 23 23 23z"/></g><g><path fill="#fff" d="M34.65 17.094a8.812 8.812 0 0 1-1.517.503 4.642 4.642 0 0 0 1.249-1.956c.07-.213-.167-.398-.363-.284a8.835 8.835 0 0 1-2.32.943.62.62 0 0 1-.551-.135A4.789 4.789 0 0 0 28.012 15c-.501 0-1.007.077-1.503.228-1.538.47-2.725 1.717-3.097 3.257a4.897 4.897 0 0 0-.112 1.718.165.165 0 0 1-.043.13.177.177 0 0 1-.148.058 12.498 12.498 0 0 1-8.548-4.492.25.25 0 0 0-.406.031c-.42.71-.642 1.52-.642 2.346 0 1.264.516 2.456 1.413 3.325a4.293 4.293 0 0 1-1.081-.412.248.248 0 0 0-.369.21c-.023 1.88 1.095 3.551 2.77 4.304a4.325 4.325 0 0 1-.9-.074.246.246 0 0 0-.283.314c.544 1.67 2.006 2.901 3.755 3.18a8.856 8.856 0 0 1-4.902 1.465h-.548a.362.362 0 0 0-.355.269.367.367 0 0 0 .18.408A13.185 13.185 0 0 0 19.731 33c2.011 0 3.892-.392 5.591-1.166a12.33 12.33 0 0 0 4.09-3.015 13.175 13.175 0 0 0 2.505-4.126c.557-1.463.85-3.025.85-4.516v-.07c0-.24.11-.465.303-.619a9.278 9.278 0 0 0 1.886-2.036c.138-.203-.08-.457-.307-.358z"/></g></g></svg>