<svg xmlns="http://www.w3.org/2000/svg" xmlns:xlink="http://www.w3.org/1999/xlink" width="35" height="35" viewBox="0 0 35 35"><defs><path id="krlva" d="M124 109c-8.822 0-16-7.178-16-16s7.178-16 16-16 16 7.178 16 16-7.178 16-16 16zm0-30c-7.72 0-14 6.28-14 14s6.28 14 14 14 14-6.28 14-14-6.28-14-14-14zm-3 19a.996.996 0 0 1-.707-.293l-3.987-3.987a.997.997 0 0 1-.002-1.438l3.989-3.989a1 1 0 1 1 1.414 1.414L119.414 92H131a1 1 0 0 1 0 2h-11.586l2.293 2.293A1 1 0 0 1 121 98z"/><mask id="krlvc" width="2" height="2" x="-1" y="-1"><path fill="#fff" d="M108 77h32v32h-32z"/><use xlink:href="#krlva"/></mask><filter id="krlvb" width="56.8" height="56.6" x="96" y="65" filterUnits="userSpaceOnUse"><feOffset dx=".8" dy=".6" in="SourceGraphic" result="FeOffset1023Out"/><feGaussianBlur in="FeOffset1023Out" result="FeGaussianBlur1024Out" stdDeviation="0.8 0.8"/></filter></defs><g><g transform="translate(-107 -76)"><g filter="url(#krlvb)"><use fill="none" stroke-opacity=".6" stroke-width="0" mask="url(&quot;#krlvc&quot;)" xlink:href="#krlva"/><use fill-opacity=".6" xlink:href="#krlva"/></g><use fill="#fff" xlink:href="#krlva"/></g></g></svg>