<svg xmlns="http://www.w3.org/2000/svg" xmlns:xlink="http://www.w3.org/1999/xlink" width="24" height="20" viewBox="0 0 24 20"><defs><path id="tk6ga" d="M1187 164h-14a1 1 0 0 1-1-1v-10a1 1 0 0 1 1-1h14a1 1 0 0 1 1 1v10a1 1 0 0 1-1 1zm5-15v11c0 .55-.45 1-1 1s-1-.45-1-1v-10h-14c-.55 0-1-.45-1-1s.45-1 1-1h15c.55 0 1 .45 1 1zm4-4v11c0 .55-.45 1-1 1s-1-.45-1-1v-10h-14c-.55 0-1-.45-1-1s.45-1 1-1h15c.55 0 1 .45 1 1z"/><clipPath id="tk6gb"><use fill="#fff" xlink:href="#tk6ga"/></clipPath></defs><g><g transform="translate(-1172 -144)"><use fill="#fff" fill-opacity="0" stroke="#acacac" stroke-miterlimit="50" stroke-width="2" clip-path="url(&quot;#tk6gb&quot;)" xlink:href="#tk6ga"/></g></g></svg>