<svg xmlns="http://www.w3.org/2000/svg" xmlns:xlink="http://www.w3.org/1999/xlink" width="24" height="20" viewBox="0 0 24 20"><defs><path id="fxf1a" d="M1185 423h-14a1 1 0 0 1-1-1v-10a1 1 0 0 1 1-1h14a1 1 0 0 1 1 1v10a1 1 0 0 1-1 1zm5-15v11c0 .55-.45 1-1 1s-1-.45-1-1v-10h-14c-.55 0-1-.45-1-1s.45-1 1-1h15c.55 0 1 .45 1 1zm4-4v11c0 .55-.45 1-1 1s-1-.45-1-1v-10h-14c-.55 0-1-.45-1-1s.45-1 1-1h15c.55 0 1 .45 1 1z"/><clipPath id="fxf1b"><use fill="#fff" xlink:href="#fxf1a"/></clipPath></defs><g><g transform="translate(-1170 -403)"><use fill="#fff" fill-opacity="0" stroke="#ff740f" stroke-miterlimit="50" stroke-width="2" clip-path="url(&quot;#fxf1b&quot;)" xlink:href="#fxf1a"/></g></g></svg>