<svg xmlns="http://www.w3.org/2000/svg" xmlns:xlink="http://www.w3.org/1999/xlink" width="119" height="119" viewBox="0 0 119 119"><defs><path id="8xn6a" d="M704.5 490c-28.995 0-52.5-23.505-52.5-52.5s23.505-52.5 52.5-52.5 52.5 23.505 52.5 52.5c0 .152-2.25.173-2.25 0 0-27.752-22.498-50.25-50.25-50.25s-50.25 22.498-50.25 50.25 22.498 50.25 50.25 50.25c0-.106.035 2.25 0 2.25zm37.421-52.22l-58.083 33.79v-67.58z"/><path id="8xn6b" d="M649 493V382h111v111zm55.5-3c.035 0 0-2.356 0-2.25-27.752 0-50.25-22.498-50.25-50.25s22.498-50.25 50.25-50.25 50.25 22.498 50.25 50.25c0 .173 2.25.152 2.25 0 0-28.995-23.505-52.5-52.5-52.5S652 408.505 652 437.5s23.505 52.5 52.5 52.5zm-20.662-86.01v67.58l58.083-33.79z"/><mask id="8xn6d" width="2" height="2" x="-1" y="-1"><path fill="#fff" d="M652 385h105v105H652z"/><use xlink:href="#8xn6a"/></mask><filter id="8xn6c" width="144.3" height="143.3" x="634" y="367" filterUnits="userSpaceOnUse"><feOffset dx="3.3" dy="2.3" in="SourceGraphic" result="FeOffset1023Out"/><feGaussianBlur in="FeOffset1023Out" result="FeGaussianBlur1024Out" stdDeviation="3.2 3.2"/></filter><clipPath id="8xn6e"><use fill="#fff" xlink:href="#8xn6b"/></clipPath></defs><g><g transform="translate(-648 -380)"><g filter="url(#8xn6c)"><use fill="none" stroke-opacity=".5" stroke-width="0" mask="url(&quot;#8xn6d&quot;)" xlink:href="#8xn6a"/><use fill-opacity=".5" xlink:href="#8xn6a"/></g><use fill="#fff" xlink:href="#8xn6a"/><use fill="#fff" fill-opacity="0" stroke="#4b4350" stroke-linecap="round" stroke-linejoin="round" stroke-miterlimit="50" stroke-opacity=".19" stroke-width="6" clip-path="url(&quot;#8xn6e&quot;)" xlink:href="#8xn6a"/></g></g></svg>
