<svg xmlns="http://www.w3.org/2000/svg" xmlns:xlink="http://www.w3.org/1999/xlink" width="22" height="24" viewBox="0 0 22 24"><defs><path id="c67ba" d="M204 165.99c-6.065 0-11-4.91-11-10.944 0-3.635 1.916-7.284 4.882-9.295a1.004 1.004 0 0 1 1.39.26.991.991 0 0 1-.263 1.383c-2.436 1.652-4.01 4.655-4.01 7.652 0 4.937 4.038 8.954 9.001 8.954 4.963 0 9-4.017 9-8.954 0-4.738-3.719-8.628-8.405-8.934l1.425 2.479a.993.993 0 0 1-.867 1.489 1 1 0 0 1-.869-.501l-2.152-3.743a.99.99 0 0 1 .38-1.361l4-2.227a1.003 1.003 0 0 1 1.361.382.992.992 0 0 1-.385 1.354l-.806.448c4.774 1.195 8.318 5.5 8.318 10.614 0 6.034-4.935 10.944-11 10.944zm-5.791-7.993h1.561v-4.574h-1.287v-.788c.353-.066.655-.144.908-.236.253-.09.49-.202.71-.333h.946v5.93h1.375v1.03h-4.213zm7.095 1.16c-.734 0-1.314-.312-1.739-.936-.425-.624-.637-1.526-.637-2.708 0-1.182.212-2.074.637-2.676.425-.602 1.005-.903 1.739-.903.732 0 1.312.303 1.737.909.426.605.639 1.496.639 2.67 0 1.182-.213 2.084-.639 2.708-.425.624-1.005.936-1.737.936zm0-.985a.85.85 0 0 0 .466-.137c.144-.09.266-.242.37-.454.102-.211.182-.485.24-.82a7.42 7.42 0 0 0 .09-1.248c0-.49-.03-.9-.09-1.231a2.98 2.98 0 0 0-.24-.805c-.104-.204-.226-.348-.37-.432a.908.908 0 0 0-.466-.126.909.909 0 0 0-.468.126c-.144.084-.266.228-.368.432a2.939 2.939 0 0 0-.242.805 7.245 7.245 0 0 0-.088 1.231c0 .496.029.912.088 1.247.058.336.138.61.242.82.102.213.224.364.368.455a.851.851 0 0 0 .468.137zm3.013-3.983c.308-.175.537-.367.688-.575.15-.208.225-.476.225-.804a.336.336 0 0 1-.1.011.752.752 0 0 1-.5-.18.614.614 0 0 1-.214-.499c0-.233.066-.417.198-.552a.689.689 0 0 1 .517-.203c.28 0 .493.106.643.318.15.212.226.51.226.897 0 .956-.458 1.67-1.375 2.145z"/></defs><g><g transform="translate(-193 -142)"><use fill="#666" xlink:href="#c67ba"/></g></g></svg>