<svg xmlns="http://www.w3.org/2000/svg" xmlns:xlink="http://www.w3.org/1999/xlink" width="25" height="25" viewBox="0 0 25 25"><defs><path id="785va" d="M794 143a5 5 0 1 1-4.29 7.57l-5.93 2.96A5 5 0 0 1 784 155c0 .849-.212 1.648-.585 2.349l6.216 3.218A5 5 0 1 1 789 163c-.001-.527.08-1.035.232-1.513l-6.378-3.302a5 5 0 1 1 .579-5.499l5.88-2.937A5 5 0 0 1 794 143zm-4 5a4 4 0 1 0 8 0 4 4 0 0 0-8 0zm-15 7a4 4 0 1 0 8 0 4 4 0 0 0-8 0zm15 8a4 4 0 1 0 8 0 4 4 0 0 0-8 0z"/></defs><g><g transform="translate(-774 -143)"><use fill="#a1a1a1" xlink:href="#785va"/></g></g></svg>