<svg xmlns="http://www.w3.org/2000/svg" xmlns:xlink="http://www.w3.org/1999/xlink" width="25" height="25" viewBox="0 0 25 25"><defs><path id="yil0a" d="M793 403a5 5 0 1 1-4.29 7.57l-5.93 2.96c.143.465.22.959.22 1.47 0 .849-.212 1.649-.585 2.349l6.216 3.218A5 5 0 1 1 788 423c-.001-.527.08-1.036.232-1.513l-6.378-3.302a5 5 0 1 1 .579-5.499l5.88-2.937A5 5 0 0 1 793 403zm-4 5a4 4 0 1 0 8 0 4 4 0 0 0-8 0zm-15 7a4 4 0 1 0 8 0 4 4 0 0 0-8 0zm15 8a4 4 0 1 0 8 0 4 4 0 0 0-8 0z"/></defs><g><g transform="translate(-773 -403)"><use fill="#ff7f23" xlink:href="#yil0a"/></g></g></svg>