<?xml version="1.0" encoding="utf-8"?>
<!-- Generator: Adobe Illustrator 21.0.2, SVG Export Plug-In . SVG Version: 6.00 Build 0)  -->
<svg version="1.1" id="Layer_1" xmlns="http://www.w3.org/2000/svg" xmlns:xlink="http://www.w3.org/1999/xlink" x="0px" y="0px"
	 viewBox="0 0 35 35" style="enable-background:new 0 0 35 35;" xml:space="preserve">
<style type="text/css">
	.st0{fill:#FFFFFF;}
</style>
<g>
	<path class="st0" d="M17.5,0C7.9,0,0,7.9,0,17.5S7.9,35,17.5,35S35,27.1,35,17.5S27.1,0,17.5,0z M17.5,34C8.4,34,1,26.6,1,17.5
		S8.4,1,17.5,1S34,8.4,34,17.5S26.6,34,17.5,34z"/>
	<path class="st0" d="M24.3,9.3l-7.1,7.1l-6.5-6.5l-1.4,1.4l6.5,6.5l-6,6l1.4,1.4l6-6l6.5,6.5l1.4-1.4l-6.5-6.5l7.1-7.1L24.3,9.3z"
		/>
</g>
</svg>
