<?xml version="1.0" encoding="utf-8"?>
<!-- Generator: Adobe Illustrator 21.0.2, SVG Export Plug-In . SVG Version: 6.00 Build 0)  -->
<svg version="1.1" id="Layer_1" xmlns="http://www.w3.org/2000/svg" xmlns:xlink="http://www.w3.org/1999/xlink" x="0px" y="0px"
	 viewBox="0 0 24 24.5" style="enable-background:new 0 0 24 24.5;" xml:space="preserve">
<style type="text/css">
	.st0{fill:#FFFFFF;}
	.st1{fill:none;stroke:#FFFFFF;}
</style>
<g>
	<path class="st0" d="M12,24.2c-6.6,0-12-5.4-12-12s5.4-12,12-12c6.6,0,12,5.4,12,12S18.6,24.2,12,24.2z M12,1.3
		c-6.1,0-11,4.9-11,11c0,6.1,4.9,11,11,11s11-4.9,11-11C23,6.2,18,1.3,12,1.3z"/>
</g>
<path id="Shape_576_copy" class="st1" d="M11.5,5.6h1v13.3h-1V5.6z M18.5,11.8v1h-13v-1H18.5z"/>
</svg>
