<svg xmlns="http://www.w3.org/2000/svg" width="39" height="39" viewBox="0 0 39 39"><g><g><g><path fill="#727272" d="M15.587 25.691l2.921 5.06a1.662 1.662 0 0 0 2.88 0l2.921-5.06 2.922-5.061c.64-1.107-.16-2.493-1.44-2.493h-1.633c.003-.032.011-.064.011-.097V7.303c0-.747-.606-1.353-1.353-1.353H17.08c-.747 0-1.352.606-1.352 1.353V18.04c0 .033.007.065.01.097h-1.632c-1.28 0-2.08 1.386-1.44 2.493z"/></g><g><path fill="#727272" d="M28.849 32.24h-17.81a.849.849 0 1 0 0 1.698h17.81a.849.849 0 1 0 0-1.698"/></g><g><path fill="none" stroke="#727272" stroke-miterlimit="50" d="M32.571 38.393H7.322A5.823 5.823 0 0 1 1.5 32.571V7.322A5.823 5.823 0 0 1 7.322 1.5h25.249a5.822 5.822 0 0 1 5.821 5.822v25.249a5.822 5.822 0 0 1-5.821 5.822z"/></g></g></g></svg>