<svg xmlns="http://www.w3.org/2000/svg" width="39" height="39" viewBox="0 0 39 39"><g><g><g><path fill="none" stroke="#fefefe" stroke-miterlimit="50" d="M32.57 38.393H7.322A5.822 5.822 0 0 1 1.5 32.571V7.322A5.822 5.822 0 0 1 7.322 1.5H32.57a5.822 5.822 0 0 1 5.822 5.822v25.249a5.822 5.822 0 0 1-5.822 5.822z"/></g><g><path fill="#fefefe" d="M20.866 9.557l2.071 6.376c.13.398.5.667.918.667h6.704c.935 0 1.324 1.196.568 1.746l-5.424 3.94a.963.963 0 0 0-.35 1.079l2.071 6.376c.29.889-.729 1.628-1.485 1.079l-5.424-3.941a.963.963 0 0 0-1.134 0l-5.424 3.94c-.756.55-1.774-.19-1.485-1.078l2.073-6.376a.966.966 0 0 0-.35-1.08l-5.426-3.94c-.756-.55-.367-1.745.568-1.745h6.705a.965.965 0 0 0 .917-.667l2.072-6.376c.288-.89 1.546-.89 1.835 0"/></g></g></g></svg>