<svg xmlns="http://www.w3.org/2000/svg" width="39" height="39" viewBox="0 0 39 39"><g><g><g><path fill="none" stroke="#fefefe" stroke-miterlimit="50" d="M32.571 38.393H7.322A5.822 5.822 0 0 1 1.5 32.571V7.322A5.822 5.822 0 0 1 7.322 1.5h25.249a5.822 5.822 0 0 1 5.821 5.822v25.249a5.822 5.822 0 0 1-5.821 5.822z"/></g><g><path fill="#fefefe" d="M7.82 13.31h2.92v5.096h5.376V13.31h2.92v13.28h-2.92v-5.729H10.74v5.729H7.82z"/></g><g><path fill="#fefefe" d="M21.6 13.31h5.729a6.86 6.86 0 0 1 2.39.409 5.191 5.191 0 0 1 1.915 1.228c.54.545.961 1.228 1.265 2.046.304.818.456 1.779.456 2.883 0 .967-.124 1.86-.372 2.678a5.909 5.909 0 0 1-1.125 2.121 5.262 5.262 0 0 1-1.879 1.403c-.75.342-1.634.512-2.65.512H21.6zm2.92 10.825h2.608c.422 0 .833-.068 1.23-.205a2.7 2.7 0 0 0 1.062-.678c.31-.317.56-.729.746-1.238.186-.507.279-1.128.279-1.859 0-.67-.065-1.274-.195-1.814a3.604 3.604 0 0 0-.643-1.385 2.856 2.856 0 0 0-1.184-.884c-.49-.205-1.095-.307-1.816-.307H24.52z"/></g></g></g></svg>