<svg xmlns="http://www.w3.org/2000/svg" width="41" height="40" viewBox="0 0 41 40"><defs><clipPath id="32jka"><path d="M0 5.8h40.95v29.766H0z"/></clipPath></defs><g><g><g><g/><g clip-path="url(#32jka)"><path fill="#fefefe" d="M39.59 5.826c.7-.15 1.36.38 1.36 1.1v22.62c0 .7-.64 1.23-1.33 1.1l-10.24-1.98c-1.3 4-5.06 6.9-9.49 6.9a9.85 9.85 0 0 1-5.31-1.54l1.07-1.68a7.96 7.96 0 0 0 4.24 1.22c3.45 0 6.39-2.2 7.5-5.28l-8.14-1.57 12.2-19.12 8.14-1.77m-27.67 19.48c0 .09-.01.19-.01.28a8 8 0 0 0 .93 3.74l-1.2 1.871a9.932 9.932 0 0 1-1.73-5.61c0-.22.02-.44.03-.66l-9.03-1.74c-.53-.1-.91-.561-.91-1.101v-6.76c0-.53.37-.98.88-1.09l25.05-5.441-10.91 17.111-3.1-.6"/></g></g><g><path fill="#fefefe" d="M9.009 40.044a1 1 0 0 1-.842-1.538L32.442.462a1 1 0 0 1 1.685 1.076L9.853 39.582a1 1 0 0 1-.844.462"/></g></g></g></svg>