<svg xmlns="http://www.w3.org/2000/svg" xmlns:xlink="http://www.w3.org/1999/xlink" width="24" height="24" viewBox="0 0 24 24"><defs><style>.a{fill:none;}.b{fill:#ee7623;}.c{clip-path:url(#a);}.d{fill:#fff;}</style><clipPath id="a"><path class="a" d="M0,0H12.783V10.686H0Z"/></clipPath></defs><g transform="translate(-276 -541)"><circle class="b" cx="12" cy="12" r="12" transform="translate(276 541)"/><g transform="translate(281.895 546.903)"><path class="a" d="M0,0H12.783V10.686H0Z" transform="translate(0 0)"/><g class="c" transform="translate(0 0)"><path class="d" d="M12.582,4.288,8.076,0,7.7.38l4.32,4.111H6.352A6.282,6.282,0,0,0,0,10.686H.543A5.745,5.745,0,0,1,6.352,5.021h5.666L7.888,8.991l.382.378,4.313-4.147a.644.644,0,0,0,0-.935" transform="translate(0 0)"/></g></g></g></svg>