<svg xmlns="http://www.w3.org/2000/svg" width="15" height="14" viewBox="0 0 15 14"><g><g><path fill="#ff6d02" d="M8.21.498l1.166 3.588a.721.721 0 0 0 .687.499h3.772c.699 0 .99.894.424 1.305l-3.052 2.217a.723.723 0 0 0-.262.807L12.11 12.5c.215.664-.545 1.217-1.11.807L7.948 11.09a.72.72 0 0 0-.849 0L4.05 13.308c-.566.41-1.326-.143-1.11-.807l1.165-3.587a.72.72 0 0 0-.262-.807L.791 5.89c-.565-.411-.275-1.305.423-1.305h3.773c.312 0 .59-.202.686-.499L6.838.498c.216-.664 1.157-.664 1.373 0z"/></g></g></svg>