<svg xmlns="http://www.w3.org/2000/svg" width="14.065" height="13.449" viewBox="0 0 14.065 13.449"><defs><style>.a{fill:#fff;}</style></defs><path class="a" d="M-249.867,333.333l1.166,3.588a.721.721,0,0,0,.686.5h3.772a.722.722,0,0,1,.424,1.305l-3.052,2.217a.723.723,0,0,0-.262.807l1.166,3.587a.722.722,0,0,1-1.11.807l-3.051-2.217a.721.721,0,0,0-.849,0l-3.051,2.217a.721.721,0,0,1-1.11-.807l1.165-3.587a.721.721,0,0,0-.262-.807l-3.051-2.217a.722.722,0,0,1,.424-1.305h3.772a.721.721,0,0,0,.686-.5l1.166-3.588A.721.721,0,0,1-249.867,333.333Z" transform="translate(257.585 -332.835)"/></svg>