<svg xmlns="http://www.w3.org/2000/svg" width="74" height="73" viewBox="0 0 74 73"><g><g><path fill="#ee7623" d="M18.784 73C8.932 73 .946 65.014.946 55.162V17.838C.946 7.986 8.932 0 18.784 0h37.324c9.852 0 17.838 7.986 17.838 17.838v37.324C73.946 65.014 65.96 73 56.108 73z"/></g><g><path fill="#fff" d="M59.103 33.126a.573.573 0 0 1 .566-.492h.733a.572.572 0 0 1 0 1.145h-.733a.573.573 0 0 1-.566-.653zm5.204 12.867l3.841-19.17a.572.572 0 0 0-.56-.685H55.17c-.27 0-.504.189-.56.453l-2.44 11.53a.572.572 0 0 0 .56.691h6.36c.364 0 .636.335.56.69l-.004.021a.572.572 0 0 1-.56.454h-6.873a.572.572 0 0 0-.56.453l-1.138 5.331a.573.573 0 0 0 .56.692h12.67a.572.572 0 0 0 .562-.46z"/></g><g><path fill="#fff" d="M52.472 26.826a.572.572 0 0 0-.56-.688h-4.739a.572.572 0 0 0-.559.45L43.81 39.526a.573.573 0 0 1-.56.451h-.2a.572.572 0 0 1-.56-.686l3.864-18.964a.572.572 0 0 0-.56-.686h-4.639c-.27 0-.504.189-.56.453L35.13 45.76a.573.573 0 0 0 .56.692h12.229c.27 0 .504-.19.56-.456z"/></g><g><path fill="#fff" d="M47.006 48.437h-4.63a.572.572 0 0 0-.56.45l-.826 3.777a.572.572 0 0 0 .559.695h4.632c.269 0 .501-.187.559-.45l.825-3.778a.572.572 0 0 0-.559-.694z"/></g><g><path fill="#fff" d="M40.127 48.437h-4.63a.572.572 0 0 0-.56.45l-.826 3.777a.572.572 0 0 0 .559.695h4.632a.572.572 0 0 0 .559-.45l.825-3.778a.572.572 0 0 0-.559-.694z"/></g><g><path fill="#fff" d="M38.202 20.327a.573.573 0 0 0-.561-.686h-4.638c-.27 0-.504.189-.56.453l-4.138 19.43a.573.573 0 0 1-.56.453H14.671a.572.572 0 0 1-.56-.687l1.554-7.6a.572.572 0 0 0-.56-.686h-1.186a4.971 4.971 0 0 0-4.862 3.934L6.746 45.76a.573.573 0 0 0 .56.692H32.41a.572.572 0 0 0 .56-.458z"/></g></g></svg>